<mxfile host="Electron" modified="2024-04-30T03:32:59.821Z" agent="Mozilla/5.0 (Windows NT 10.0; Win64; x64) AppleWebKit/537.36 (KHTML, like Gecko) draw.io/23.0.2 Chrome/120.0.6099.109 Electron/28.1.0 Safari/537.36" etag="onkPijSjJhFRr40FLK0n" version="23.0.2" type="device" pages="9">
  <diagram name="Use Case Diagram" id="KDollu3YzY01GreXsSme">
    <mxGraphModel dx="1395" dy="703" grid="1" gridSize="10" guides="1" tooltips="1" connect="1" arrows="1" fold="1" page="1" pageScale="1" pageWidth="850" pageHeight="1100" math="0" shadow="0">
      <root>
        <mxCell id="0" />
        <mxCell id="1" parent="0" />
        <mxCell id="PUWhdd34J2PFO7rSVhFX-1" value="" style="rounded=0;whiteSpace=wrap;html=1;" vertex="1" parent="1">
          <mxGeometry x="225" y="260" width="200" height="690" as="geometry" />
        </mxCell>
        <mxCell id="PUWhdd34J2PFO7rSVhFX-2" value="Check in/Check out Equipment" style="ellipse;whiteSpace=wrap;html=1;" vertex="1" parent="1">
          <mxGeometry x="265" y="390" width="120" height="80" as="geometry" />
        </mxCell>
        <mxCell id="PUWhdd34J2PFO7rSVhFX-3" value="Add/Remove Equipment" style="ellipse;whiteSpace=wrap;html=1;" vertex="1" parent="1">
          <mxGeometry x="265" y="298" width="120" height="80" as="geometry" />
        </mxCell>
        <mxCell id="PUWhdd34J2PFO7rSVhFX-4" value="Equipment Tracker System" style="text;html=1;align=center;verticalAlign=middle;resizable=0;points=[];autosize=1;strokeColor=none;fillColor=none;" vertex="1" parent="1">
          <mxGeometry x="240" y="268" width="170" height="30" as="geometry" />
        </mxCell>
        <mxCell id="PUWhdd34J2PFO7rSVhFX-7" value="Manager" style="shape=umlActor;verticalLabelPosition=bottom;verticalAlign=top;html=1;outlineConnect=0;" vertex="1" parent="1">
          <mxGeometry x="120" y="370" width="30" height="60" as="geometry" />
        </mxCell>
        <mxCell id="PUWhdd34J2PFO7rSVhFX-8" value="S&amp;amp;R" style="shape=umlActor;verticalLabelPosition=bottom;verticalAlign=top;html=1;outlineConnect=0;" vertex="1" parent="1">
          <mxGeometry x="120" y="500" width="30" height="60" as="geometry" />
        </mxCell>
        <mxCell id="PUWhdd34J2PFO7rSVhFX-9" value="Procurement" style="shape=umlActor;verticalLabelPosition=bottom;verticalAlign=top;html=1;outlineConnect=0;" vertex="1" parent="1">
          <mxGeometry x="120" y="620" width="30" height="60" as="geometry" />
        </mxCell>
        <mxCell id="PUWhdd34J2PFO7rSVhFX-10" value="Tech/Engineer" style="shape=umlActor;verticalLabelPosition=bottom;verticalAlign=top;html=1;outlineConnect=0;" vertex="1" parent="1">
          <mxGeometry x="120" y="740" width="30" height="60" as="geometry" />
        </mxCell>
        <mxCell id="PUWhdd34J2PFO7rSVhFX-12" value="Equipment Database" style="shape=umlActor;verticalLabelPosition=bottom;verticalAlign=top;html=1;outlineConnect=0;" vertex="1" parent="1">
          <mxGeometry x="490" y="480" width="30" height="60" as="geometry" />
        </mxCell>
        <mxCell id="PUWhdd34J2PFO7rSVhFX-13" value="System Administrator/IT" style="shape=umlActor;verticalLabelPosition=bottom;verticalAlign=top;html=1;outlineConnect=0;" vertex="1" parent="1">
          <mxGeometry x="490" y="660" width="30" height="60" as="geometry" />
        </mxCell>
        <mxCell id="PUWhdd34J2PFO7rSVhFX-14" value="Reserve Equipment" style="ellipse;whiteSpace=wrap;html=1;" vertex="1" parent="1">
          <mxGeometry x="265" y="480" width="120" height="80" as="geometry" />
        </mxCell>
        <mxCell id="PUWhdd34J2PFO7rSVhFX-15" value="Update Equipment Status" style="ellipse;whiteSpace=wrap;html=1;" vertex="1" parent="1">
          <mxGeometry x="265" y="570" width="120" height="80" as="geometry" />
        </mxCell>
        <mxCell id="PUWhdd34J2PFO7rSVhFX-16" value="Search current Equipment" style="ellipse;whiteSpace=wrap;html=1;" vertex="1" parent="1">
          <mxGeometry x="265" y="660" width="120" height="80" as="geometry" />
        </mxCell>
        <mxCell id="PUWhdd34J2PFO7rSVhFX-17" value="Request Equipment" style="ellipse;whiteSpace=wrap;html=1;" vertex="1" parent="1">
          <mxGeometry x="265" y="750" width="120" height="80" as="geometry" />
        </mxCell>
        <mxCell id="PUWhdd34J2PFO7rSVhFX-18" value="Manage Users" style="ellipse;whiteSpace=wrap;html=1;" vertex="1" parent="1">
          <mxGeometry x="265" y="840" width="120" height="80" as="geometry" />
        </mxCell>
        <mxCell id="PUWhdd34J2PFO7rSVhFX-23" value="" style="endArrow=classic;html=1;rounded=0;" edge="1" parent="1" source="PUWhdd34J2PFO7rSVhFX-7" target="PUWhdd34J2PFO7rSVhFX-14">
          <mxGeometry width="50" height="50" relative="1" as="geometry">
            <mxPoint x="740" y="500" as="sourcePoint" />
            <mxPoint x="790" y="450" as="targetPoint" />
          </mxGeometry>
        </mxCell>
        <mxCell id="PUWhdd34J2PFO7rSVhFX-24" value="" style="endArrow=classic;html=1;rounded=0;" edge="1" parent="1" source="PUWhdd34J2PFO7rSVhFX-7" target="PUWhdd34J2PFO7rSVhFX-2">
          <mxGeometry width="50" height="50" relative="1" as="geometry">
            <mxPoint x="740" y="500" as="sourcePoint" />
            <mxPoint x="790" y="450" as="targetPoint" />
          </mxGeometry>
        </mxCell>
        <mxCell id="PUWhdd34J2PFO7rSVhFX-25" value="" style="endArrow=classic;html=1;rounded=0;" edge="1" parent="1" source="PUWhdd34J2PFO7rSVhFX-7" target="PUWhdd34J2PFO7rSVhFX-15">
          <mxGeometry width="50" height="50" relative="1" as="geometry">
            <mxPoint x="740" y="500" as="sourcePoint" />
            <mxPoint x="790" y="450" as="targetPoint" />
          </mxGeometry>
        </mxCell>
        <mxCell id="PUWhdd34J2PFO7rSVhFX-26" value="" style="endArrow=classic;html=1;rounded=0;" edge="1" parent="1" source="PUWhdd34J2PFO7rSVhFX-7" target="PUWhdd34J2PFO7rSVhFX-16">
          <mxGeometry width="50" height="50" relative="1" as="geometry">
            <mxPoint x="740" y="500" as="sourcePoint" />
            <mxPoint x="790" y="450" as="targetPoint" />
          </mxGeometry>
        </mxCell>
        <mxCell id="PUWhdd34J2PFO7rSVhFX-27" value="" style="endArrow=classic;html=1;rounded=0;" edge="1" parent="1" source="PUWhdd34J2PFO7rSVhFX-7" target="PUWhdd34J2PFO7rSVhFX-17">
          <mxGeometry width="50" height="50" relative="1" as="geometry">
            <mxPoint x="740" y="500" as="sourcePoint" />
            <mxPoint x="790" y="450" as="targetPoint" />
          </mxGeometry>
        </mxCell>
        <mxCell id="PUWhdd34J2PFO7rSVhFX-28" value="" style="endArrow=classic;html=1;rounded=0;" edge="1" parent="1" source="PUWhdd34J2PFO7rSVhFX-8" target="PUWhdd34J2PFO7rSVhFX-3">
          <mxGeometry width="50" height="50" relative="1" as="geometry">
            <mxPoint x="740" y="500" as="sourcePoint" />
            <mxPoint x="790" y="450" as="targetPoint" />
          </mxGeometry>
        </mxCell>
        <mxCell id="PUWhdd34J2PFO7rSVhFX-29" value="" style="endArrow=classic;html=1;rounded=0;" edge="1" parent="1" source="PUWhdd34J2PFO7rSVhFX-8" target="PUWhdd34J2PFO7rSVhFX-15">
          <mxGeometry width="50" height="50" relative="1" as="geometry">
            <mxPoint x="740" y="500" as="sourcePoint" />
            <mxPoint x="790" y="450" as="targetPoint" />
          </mxGeometry>
        </mxCell>
        <mxCell id="PUWhdd34J2PFO7rSVhFX-30" value="" style="endArrow=classic;html=1;rounded=0;" edge="1" parent="1" source="PUWhdd34J2PFO7rSVhFX-8" target="PUWhdd34J2PFO7rSVhFX-16">
          <mxGeometry width="50" height="50" relative="1" as="geometry">
            <mxPoint x="740" y="500" as="sourcePoint" />
            <mxPoint x="790" y="450" as="targetPoint" />
          </mxGeometry>
        </mxCell>
        <mxCell id="PUWhdd34J2PFO7rSVhFX-31" value="" style="endArrow=classic;html=1;rounded=0;" edge="1" parent="1" source="PUWhdd34J2PFO7rSVhFX-9" target="PUWhdd34J2PFO7rSVhFX-3">
          <mxGeometry width="50" height="50" relative="1" as="geometry">
            <mxPoint x="740" y="500" as="sourcePoint" />
            <mxPoint x="790" y="450" as="targetPoint" />
          </mxGeometry>
        </mxCell>
        <mxCell id="PUWhdd34J2PFO7rSVhFX-32" value="" style="endArrow=classic;html=1;rounded=0;" edge="1" parent="1" source="PUWhdd34J2PFO7rSVhFX-9" target="PUWhdd34J2PFO7rSVhFX-15">
          <mxGeometry width="50" height="50" relative="1" as="geometry">
            <mxPoint x="740" y="500" as="sourcePoint" />
            <mxPoint x="790" y="450" as="targetPoint" />
          </mxGeometry>
        </mxCell>
        <mxCell id="PUWhdd34J2PFO7rSVhFX-33" value="" style="endArrow=classic;html=1;rounded=0;" edge="1" parent="1" source="PUWhdd34J2PFO7rSVhFX-9" target="PUWhdd34J2PFO7rSVhFX-16">
          <mxGeometry width="50" height="50" relative="1" as="geometry">
            <mxPoint x="740" y="500" as="sourcePoint" />
            <mxPoint x="790" y="450" as="targetPoint" />
          </mxGeometry>
        </mxCell>
        <mxCell id="PUWhdd34J2PFO7rSVhFX-34" value="" style="endArrow=classic;html=1;rounded=0;" edge="1" parent="1" source="PUWhdd34J2PFO7rSVhFX-10" target="PUWhdd34J2PFO7rSVhFX-2">
          <mxGeometry width="50" height="50" relative="1" as="geometry">
            <mxPoint x="740" y="500" as="sourcePoint" />
            <mxPoint x="790" y="450" as="targetPoint" />
          </mxGeometry>
        </mxCell>
        <mxCell id="PUWhdd34J2PFO7rSVhFX-35" value="" style="endArrow=classic;html=1;rounded=0;" edge="1" parent="1" source="PUWhdd34J2PFO7rSVhFX-10" target="PUWhdd34J2PFO7rSVhFX-14">
          <mxGeometry width="50" height="50" relative="1" as="geometry">
            <mxPoint x="740" y="500" as="sourcePoint" />
            <mxPoint x="790" y="450" as="targetPoint" />
          </mxGeometry>
        </mxCell>
        <mxCell id="PUWhdd34J2PFO7rSVhFX-36" value="" style="endArrow=classic;html=1;rounded=0;" edge="1" parent="1" source="PUWhdd34J2PFO7rSVhFX-10" target="PUWhdd34J2PFO7rSVhFX-15">
          <mxGeometry width="50" height="50" relative="1" as="geometry">
            <mxPoint x="740" y="500" as="sourcePoint" />
            <mxPoint x="790" y="450" as="targetPoint" />
          </mxGeometry>
        </mxCell>
        <mxCell id="PUWhdd34J2PFO7rSVhFX-37" value="" style="endArrow=classic;html=1;rounded=0;" edge="1" parent="1" source="PUWhdd34J2PFO7rSVhFX-10" target="PUWhdd34J2PFO7rSVhFX-16">
          <mxGeometry width="50" height="50" relative="1" as="geometry">
            <mxPoint x="740" y="500" as="sourcePoint" />
            <mxPoint x="790" y="450" as="targetPoint" />
          </mxGeometry>
        </mxCell>
        <mxCell id="PUWhdd34J2PFO7rSVhFX-38" value="" style="endArrow=classic;html=1;rounded=0;" edge="1" parent="1" source="PUWhdd34J2PFO7rSVhFX-12" target="PUWhdd34J2PFO7rSVhFX-3">
          <mxGeometry width="50" height="50" relative="1" as="geometry">
            <mxPoint x="740" y="500" as="sourcePoint" />
            <mxPoint x="790" y="450" as="targetPoint" />
          </mxGeometry>
        </mxCell>
        <mxCell id="PUWhdd34J2PFO7rSVhFX-39" value="" style="endArrow=classic;html=1;rounded=0;" edge="1" parent="1" source="PUWhdd34J2PFO7rSVhFX-12" target="PUWhdd34J2PFO7rSVhFX-2">
          <mxGeometry width="50" height="50" relative="1" as="geometry">
            <mxPoint x="500" y="506" as="sourcePoint" />
            <mxPoint x="369" y="381" as="targetPoint" />
          </mxGeometry>
        </mxCell>
        <mxCell id="PUWhdd34J2PFO7rSVhFX-40" value="" style="endArrow=classic;html=1;rounded=0;" edge="1" parent="1" source="PUWhdd34J2PFO7rSVhFX-12" target="PUWhdd34J2PFO7rSVhFX-14">
          <mxGeometry width="50" height="50" relative="1" as="geometry">
            <mxPoint x="500" y="513" as="sourcePoint" />
            <mxPoint x="385" y="462" as="targetPoint" />
          </mxGeometry>
        </mxCell>
        <mxCell id="PUWhdd34J2PFO7rSVhFX-41" value="" style="endArrow=classic;html=1;rounded=0;" edge="1" parent="1" source="PUWhdd34J2PFO7rSVhFX-12" target="PUWhdd34J2PFO7rSVhFX-15">
          <mxGeometry width="50" height="50" relative="1" as="geometry">
            <mxPoint x="500" y="521" as="sourcePoint" />
            <mxPoint x="395" y="527" as="targetPoint" />
          </mxGeometry>
        </mxCell>
        <mxCell id="PUWhdd34J2PFO7rSVhFX-42" value="" style="endArrow=classic;html=1;rounded=0;" edge="1" parent="1" source="PUWhdd34J2PFO7rSVhFX-12" target="PUWhdd34J2PFO7rSVhFX-16">
          <mxGeometry width="50" height="50" relative="1" as="geometry">
            <mxPoint x="740" y="500" as="sourcePoint" />
            <mxPoint x="790" y="450" as="targetPoint" />
          </mxGeometry>
        </mxCell>
        <mxCell id="PUWhdd34J2PFO7rSVhFX-43" value="" style="endArrow=classic;html=1;rounded=0;" edge="1" parent="1" source="PUWhdd34J2PFO7rSVhFX-12" target="PUWhdd34J2PFO7rSVhFX-17">
          <mxGeometry width="50" height="50" relative="1" as="geometry">
            <mxPoint x="740" y="500" as="sourcePoint" />
            <mxPoint x="790" y="450" as="targetPoint" />
          </mxGeometry>
        </mxCell>
        <mxCell id="PUWhdd34J2PFO7rSVhFX-44" value="" style="endArrow=classic;html=1;rounded=0;" edge="1" parent="1" source="PUWhdd34J2PFO7rSVhFX-13" target="PUWhdd34J2PFO7rSVhFX-18">
          <mxGeometry width="50" height="50" relative="1" as="geometry">
            <mxPoint x="740" y="500" as="sourcePoint" />
            <mxPoint x="790" y="450" as="targetPoint" />
          </mxGeometry>
        </mxCell>
        <mxCell id="PUWhdd34J2PFO7rSVhFX-45" value="" style="endArrow=classic;html=1;rounded=0;" edge="1" parent="1" source="PUWhdd34J2PFO7rSVhFX-13" target="PUWhdd34J2PFO7rSVhFX-3">
          <mxGeometry width="50" height="50" relative="1" as="geometry">
            <mxPoint x="740" y="500" as="sourcePoint" />
            <mxPoint x="790" y="450" as="targetPoint" />
          </mxGeometry>
        </mxCell>
        <mxCell id="PUWhdd34J2PFO7rSVhFX-46" value="" style="endArrow=classic;html=1;rounded=0;" edge="1" parent="1" source="PUWhdd34J2PFO7rSVhFX-13" target="PUWhdd34J2PFO7rSVhFX-15">
          <mxGeometry width="50" height="50" relative="1" as="geometry">
            <mxPoint x="740" y="500" as="sourcePoint" />
            <mxPoint x="790" y="450" as="targetPoint" />
          </mxGeometry>
        </mxCell>
        <mxCell id="PUWhdd34J2PFO7rSVhFX-47" value="" style="endArrow=classic;html=1;rounded=0;" edge="1" parent="1" source="PUWhdd34J2PFO7rSVhFX-13" target="PUWhdd34J2PFO7rSVhFX-16">
          <mxGeometry width="50" height="50" relative="1" as="geometry">
            <mxPoint x="740" y="500" as="sourcePoint" />
            <mxPoint x="790" y="450" as="targetPoint" />
          </mxGeometry>
        </mxCell>
      </root>
    </mxGraphModel>
  </diagram>
  <diagram id="FEtBVJ3YKdX7s6a_GQ6W" name="Domain Model">
    <mxGraphModel dx="2524" dy="844" grid="1" gridSize="10" guides="1" tooltips="1" connect="1" arrows="1" fold="1" page="1" pageScale="1" pageWidth="850" pageHeight="1100" math="0" shadow="0">
      <root>
        <mxCell id="0" />
        <mxCell id="1" parent="0" />
        <mxCell id="Ed09azPddPTFDHTzW8Lc-5" value="User" style="swimlane;fontStyle=0;childLayout=stackLayout;horizontal=1;startSize=26;fillColor=none;horizontalStack=0;resizeParent=1;resizeParentMax=0;resizeLast=0;collapsible=1;marginBottom=0;whiteSpace=wrap;html=1;" vertex="1" parent="1">
          <mxGeometry x="260" y="110" width="140" height="130" as="geometry" />
        </mxCell>
        <mxCell id="Ed09azPddPTFDHTzW8Lc-6" value="int: employee num" style="text;strokeColor=none;fillColor=none;align=left;verticalAlign=top;spacingLeft=4;spacingRight=4;overflow=hidden;rotatable=0;points=[[0,0.5],[1,0.5]];portConstraint=eastwest;whiteSpace=wrap;html=1;" vertex="1" parent="Ed09azPddPTFDHTzW8Lc-5">
          <mxGeometry y="26" width="140" height="26" as="geometry" />
        </mxCell>
        <mxCell id="Ed09azPddPTFDHTzW8Lc-7" value="string: name" style="text;strokeColor=none;fillColor=none;align=left;verticalAlign=top;spacingLeft=4;spacingRight=4;overflow=hidden;rotatable=0;points=[[0,0.5],[1,0.5]];portConstraint=eastwest;whiteSpace=wrap;html=1;" vertex="1" parent="Ed09azPddPTFDHTzW8Lc-5">
          <mxGeometry y="52" width="140" height="26" as="geometry" />
        </mxCell>
        <mxCell id="Ed09azPddPTFDHTzW8Lc-8" value="string: email" style="text;strokeColor=none;fillColor=none;align=left;verticalAlign=top;spacingLeft=4;spacingRight=4;overflow=hidden;rotatable=0;points=[[0,0.5],[1,0.5]];portConstraint=eastwest;whiteSpace=wrap;html=1;" vertex="1" parent="Ed09azPddPTFDHTzW8Lc-5">
          <mxGeometry y="78" width="140" height="26" as="geometry" />
        </mxCell>
        <mxCell id="ULfXk3tT-SuGjALfaXAJ-1" value="string: phone" style="text;strokeColor=none;fillColor=none;align=left;verticalAlign=top;spacingLeft=4;spacingRight=4;overflow=hidden;rotatable=0;points=[[0,0.5],[1,0.5]];portConstraint=eastwest;whiteSpace=wrap;html=1;" vertex="1" parent="Ed09azPddPTFDHTzW8Lc-5">
          <mxGeometry y="104" width="140" height="26" as="geometry" />
        </mxCell>
        <mxCell id="63CyqD5jD6BHnDnro7D2-1" value="Manager" style="swimlane;fontStyle=0;childLayout=stackLayout;horizontal=1;startSize=26;fillColor=none;horizontalStack=0;resizeParent=1;resizeParentMax=0;resizeLast=0;collapsible=1;marginBottom=0;whiteSpace=wrap;html=1;" vertex="1" parent="1">
          <mxGeometry x="-60" y="300" width="140" height="78" as="geometry" />
        </mxCell>
        <mxCell id="63CyqD5jD6BHnDnro7D2-2" value="list: employees" style="text;strokeColor=none;fillColor=none;align=left;verticalAlign=top;spacingLeft=4;spacingRight=4;overflow=hidden;rotatable=0;points=[[0,0.5],[1,0.5]];portConstraint=eastwest;whiteSpace=wrap;html=1;" vertex="1" parent="63CyqD5jD6BHnDnro7D2-1">
          <mxGeometry y="26" width="140" height="26" as="geometry" />
        </mxCell>
        <mxCell id="63CyqD5jD6BHnDnro7D2-3" value="list: projects" style="text;strokeColor=none;fillColor=none;align=left;verticalAlign=top;spacingLeft=4;spacingRight=4;overflow=hidden;rotatable=0;points=[[0,0.5],[1,0.5]];portConstraint=eastwest;whiteSpace=wrap;html=1;" vertex="1" parent="63CyqD5jD6BHnDnro7D2-1">
          <mxGeometry y="52" width="140" height="26" as="geometry" />
        </mxCell>
        <mxCell id="63CyqD5jD6BHnDnro7D2-5" value="S&amp;amp;R" style="swimlane;fontStyle=0;childLayout=stackLayout;horizontal=1;startSize=26;fillColor=none;horizontalStack=0;resizeParent=1;resizeParentMax=0;resizeLast=0;collapsible=1;marginBottom=0;whiteSpace=wrap;html=1;" vertex="1" parent="1">
          <mxGeometry x="260" y="300" width="140" height="52" as="geometry" />
        </mxCell>
        <mxCell id="63CyqD5jD6BHnDnro7D2-6" value="string: department" style="text;strokeColor=none;fillColor=none;align=left;verticalAlign=top;spacingLeft=4;spacingRight=4;overflow=hidden;rotatable=0;points=[[0,0.5],[1,0.5]];portConstraint=eastwest;whiteSpace=wrap;html=1;" vertex="1" parent="63CyqD5jD6BHnDnro7D2-5">
          <mxGeometry y="26" width="140" height="26" as="geometry" />
        </mxCell>
        <mxCell id="63CyqD5jD6BHnDnro7D2-9" value="Procurement" style="swimlane;fontStyle=0;childLayout=stackLayout;horizontal=1;startSize=26;fillColor=none;horizontalStack=0;resizeParent=1;resizeParentMax=0;resizeLast=0;collapsible=1;marginBottom=0;whiteSpace=wrap;html=1;" vertex="1" parent="1">
          <mxGeometry x="420" y="300" width="140" height="52" as="geometry" />
        </mxCell>
        <mxCell id="63CyqD5jD6BHnDnro7D2-10" value="list: clients" style="text;strokeColor=none;fillColor=none;align=left;verticalAlign=top;spacingLeft=4;spacingRight=4;overflow=hidden;rotatable=0;points=[[0,0.5],[1,0.5]];portConstraint=eastwest;whiteSpace=wrap;html=1;" vertex="1" parent="63CyqD5jD6BHnDnro7D2-9">
          <mxGeometry y="26" width="140" height="26" as="geometry" />
        </mxCell>
        <mxCell id="63CyqD5jD6BHnDnro7D2-13" value="Tech/Engineer" style="swimlane;fontStyle=0;childLayout=stackLayout;horizontal=1;startSize=26;fillColor=none;horizontalStack=0;resizeParent=1;resizeParentMax=0;resizeLast=0;collapsible=1;marginBottom=0;whiteSpace=wrap;html=1;" vertex="1" parent="1">
          <mxGeometry x="100" y="300" width="140" height="78" as="geometry" />
        </mxCell>
        <mxCell id="63CyqD5jD6BHnDnro7D2-14" value="list: projects" style="text;strokeColor=none;fillColor=none;align=left;verticalAlign=top;spacingLeft=4;spacingRight=4;overflow=hidden;rotatable=0;points=[[0,0.5],[1,0.5]];portConstraint=eastwest;whiteSpace=wrap;html=1;" vertex="1" parent="63CyqD5jD6BHnDnro7D2-13">
          <mxGeometry y="26" width="140" height="26" as="geometry" />
        </mxCell>
        <mxCell id="63CyqD5jD6BHnDnro7D2-15" value="int: level" style="text;strokeColor=none;fillColor=none;align=left;verticalAlign=top;spacingLeft=4;spacingRight=4;overflow=hidden;rotatable=0;points=[[0,0.5],[1,0.5]];portConstraint=eastwest;whiteSpace=wrap;html=1;" vertex="1" parent="63CyqD5jD6BHnDnro7D2-13">
          <mxGeometry y="52" width="140" height="26" as="geometry" />
        </mxCell>
        <mxCell id="inKw64Bg0I8EJ67Byxa1-1" value="System Admin" style="swimlane;fontStyle=0;childLayout=stackLayout;horizontal=1;startSize=26;fillColor=none;horizontalStack=0;resizeParent=1;resizeParentMax=0;resizeLast=0;collapsible=1;marginBottom=0;whiteSpace=wrap;html=1;" vertex="1" parent="1">
          <mxGeometry x="580" y="300" width="140" height="52" as="geometry" />
        </mxCell>
        <mxCell id="inKw64Bg0I8EJ67Byxa1-2" value="string: access" style="text;strokeColor=none;fillColor=none;align=left;verticalAlign=top;spacingLeft=4;spacingRight=4;overflow=hidden;rotatable=0;points=[[0,0.5],[1,0.5]];portConstraint=eastwest;whiteSpace=wrap;html=1;" vertex="1" parent="inKw64Bg0I8EJ67Byxa1-1">
          <mxGeometry y="26" width="140" height="26" as="geometry" />
        </mxCell>
        <mxCell id="inKw64Bg0I8EJ67Byxa1-5" value="Equipment" style="swimlane;fontStyle=0;childLayout=stackLayout;horizontal=1;startSize=26;fillColor=none;horizontalStack=0;resizeParent=1;resizeParentMax=0;resizeLast=0;collapsible=1;marginBottom=0;whiteSpace=wrap;html=1;" vertex="1" parent="1">
          <mxGeometry x="-495" y="300" width="140" height="182" as="geometry" />
        </mxCell>
        <mxCell id="inKw64Bg0I8EJ67Byxa1-6" value="string: name" style="text;strokeColor=none;fillColor=none;align=left;verticalAlign=top;spacingLeft=4;spacingRight=4;overflow=hidden;rotatable=0;points=[[0,0.5],[1,0.5]];portConstraint=eastwest;whiteSpace=wrap;html=1;" vertex="1" parent="inKw64Bg0I8EJ67Byxa1-5">
          <mxGeometry y="26" width="140" height="26" as="geometry" />
        </mxCell>
        <mxCell id="inKw64Bg0I8EJ67Byxa1-7" value="int: ID" style="text;strokeColor=none;fillColor=none;align=left;verticalAlign=top;spacingLeft=4;spacingRight=4;overflow=hidden;rotatable=0;points=[[0,0.5],[1,0.5]];portConstraint=eastwest;whiteSpace=wrap;html=1;" vertex="1" parent="inKw64Bg0I8EJ67Byxa1-5">
          <mxGeometry y="52" width="140" height="26" as="geometry" />
        </mxCell>
        <mxCell id="ULfXk3tT-SuGjALfaXAJ-5" value="string: description" style="text;strokeColor=none;fillColor=none;align=left;verticalAlign=top;spacingLeft=4;spacingRight=4;overflow=hidden;rotatable=0;points=[[0,0.5],[1,0.5]];portConstraint=eastwest;whiteSpace=wrap;html=1;" vertex="1" parent="inKw64Bg0I8EJ67Byxa1-5">
          <mxGeometry y="78" width="140" height="26" as="geometry" />
        </mxCell>
        <mxCell id="ULfXk3tT-SuGjALfaXAJ-6" value="bmp: image" style="text;strokeColor=none;fillColor=none;align=left;verticalAlign=top;spacingLeft=4;spacingRight=4;overflow=hidden;rotatable=0;points=[[0,0.5],[1,0.5]];portConstraint=eastwest;whiteSpace=wrap;html=1;" vertex="1" parent="inKw64Bg0I8EJ67Byxa1-5">
          <mxGeometry y="104" width="140" height="26" as="geometry" />
        </mxCell>
        <mxCell id="iv-ToAnlOyiLI5YUQ9ga-2" value="string: status" style="text;strokeColor=none;fillColor=none;align=left;verticalAlign=top;spacingLeft=4;spacingRight=4;overflow=hidden;rotatable=0;points=[[0,0.5],[1,0.5]];portConstraint=eastwest;whiteSpace=wrap;html=1;" vertex="1" parent="inKw64Bg0I8EJ67Byxa1-5">
          <mxGeometry y="130" width="140" height="26" as="geometry" />
        </mxCell>
        <mxCell id="inKw64Bg0I8EJ67Byxa1-8" value="date: next calibration&amp;nbsp;" style="text;strokeColor=none;fillColor=none;align=left;verticalAlign=top;spacingLeft=4;spacingRight=4;overflow=hidden;rotatable=0;points=[[0,0.5],[1,0.5]];portConstraint=eastwest;whiteSpace=wrap;html=1;" vertex="1" parent="inKw64Bg0I8EJ67Byxa1-5">
          <mxGeometry y="156" width="140" height="26" as="geometry" />
        </mxCell>
        <mxCell id="inKw64Bg0I8EJ67Byxa1-9" value="Project" style="swimlane;fontStyle=0;childLayout=stackLayout;horizontal=1;startSize=26;fillColor=none;horizontalStack=0;resizeParent=1;resizeParentMax=0;resizeLast=0;collapsible=1;marginBottom=0;whiteSpace=wrap;html=1;" vertex="1" parent="1">
          <mxGeometry x="20" y="490" width="140" height="104" as="geometry" />
        </mxCell>
        <mxCell id="inKw64Bg0I8EJ67Byxa1-10" value="string: name" style="text;strokeColor=none;fillColor=none;align=left;verticalAlign=top;spacingLeft=4;spacingRight=4;overflow=hidden;rotatable=0;points=[[0,0.5],[1,0.5]];portConstraint=eastwest;whiteSpace=wrap;html=1;" vertex="1" parent="inKw64Bg0I8EJ67Byxa1-9">
          <mxGeometry y="26" width="140" height="26" as="geometry" />
        </mxCell>
        <mxCell id="inKw64Bg0I8EJ67Byxa1-11" value="int: ID" style="text;strokeColor=none;fillColor=none;align=left;verticalAlign=top;spacingLeft=4;spacingRight=4;overflow=hidden;rotatable=0;points=[[0,0.5],[1,0.5]];portConstraint=eastwest;whiteSpace=wrap;html=1;" vertex="1" parent="inKw64Bg0I8EJ67Byxa1-9">
          <mxGeometry y="52" width="140" height="26" as="geometry" />
        </mxCell>
        <mxCell id="inKw64Bg0I8EJ67Byxa1-12" value="string: type" style="text;strokeColor=none;fillColor=none;align=left;verticalAlign=top;spacingLeft=4;spacingRight=4;overflow=hidden;rotatable=0;points=[[0,0.5],[1,0.5]];portConstraint=eastwest;whiteSpace=wrap;html=1;" vertex="1" parent="inKw64Bg0I8EJ67Byxa1-9">
          <mxGeometry y="78" width="140" height="26" as="geometry" />
        </mxCell>
        <mxCell id="inKw64Bg0I8EJ67Byxa1-13" value="Schedule" style="swimlane;fontStyle=0;childLayout=stackLayout;horizontal=1;startSize=26;fillColor=none;horizontalStack=0;resizeParent=1;resizeParentMax=0;resizeLast=0;collapsible=1;marginBottom=0;whiteSpace=wrap;html=1;" vertex="1" parent="1">
          <mxGeometry x="-495" y="150" width="140" height="78" as="geometry" />
        </mxCell>
        <mxCell id="inKw64Bg0I8EJ67Byxa1-14" value="list: equipment" style="text;strokeColor=none;fillColor=none;align=left;verticalAlign=top;spacingLeft=4;spacingRight=4;overflow=hidden;rotatable=0;points=[[0,0.5],[1,0.5]];portConstraint=eastwest;whiteSpace=wrap;html=1;" vertex="1" parent="inKw64Bg0I8EJ67Byxa1-13">
          <mxGeometry y="26" width="140" height="26" as="geometry" />
        </mxCell>
        <mxCell id="inKw64Bg0I8EJ67Byxa1-15" value="list: dates" style="text;strokeColor=none;fillColor=none;align=left;verticalAlign=top;spacingLeft=4;spacingRight=4;overflow=hidden;rotatable=0;points=[[0,0.5],[1,0.5]];portConstraint=eastwest;whiteSpace=wrap;html=1;" vertex="1" parent="inKw64Bg0I8EJ67Byxa1-13">
          <mxGeometry y="52" width="140" height="26" as="geometry" />
        </mxCell>
        <mxCell id="inKw64Bg0I8EJ67Byxa1-17" value="Request" style="swimlane;fontStyle=0;childLayout=stackLayout;horizontal=1;startSize=26;fillColor=none;horizontalStack=0;resizeParent=1;resizeParentMax=0;resizeLast=0;collapsible=1;marginBottom=0;whiteSpace=wrap;html=1;" vertex="1" parent="1">
          <mxGeometry x="-280" y="300" width="140" height="130" as="geometry" />
        </mxCell>
        <mxCell id="inKw64Bg0I8EJ67Byxa1-18" value="string: equipment name" style="text;strokeColor=none;fillColor=none;align=left;verticalAlign=top;spacingLeft=4;spacingRight=4;overflow=hidden;rotatable=0;points=[[0,0.5],[1,0.5]];portConstraint=eastwest;whiteSpace=wrap;html=1;" vertex="1" parent="inKw64Bg0I8EJ67Byxa1-17">
          <mxGeometry y="26" width="140" height="26" as="geometry" />
        </mxCell>
        <mxCell id="inKw64Bg0I8EJ67Byxa1-19" value="int: ID" style="text;strokeColor=none;fillColor=none;align=left;verticalAlign=top;spacingLeft=4;spacingRight=4;overflow=hidden;rotatable=0;points=[[0,0.5],[1,0.5]];portConstraint=eastwest;whiteSpace=wrap;html=1;" vertex="1" parent="inKw64Bg0I8EJ67Byxa1-17">
          <mxGeometry y="52" width="140" height="26" as="geometry" />
        </mxCell>
        <mxCell id="inKw64Bg0I8EJ67Byxa1-20" value="date: dates" style="text;strokeColor=none;fillColor=none;align=left;verticalAlign=top;spacingLeft=4;spacingRight=4;overflow=hidden;rotatable=0;points=[[0,0.5],[1,0.5]];portConstraint=eastwest;whiteSpace=wrap;html=1;" vertex="1" parent="inKw64Bg0I8EJ67Byxa1-17">
          <mxGeometry y="78" width="140" height="26" as="geometry" />
        </mxCell>
        <mxCell id="ULfXk3tT-SuGjALfaXAJ-9" value="string: project" style="text;strokeColor=none;fillColor=none;align=left;verticalAlign=top;spacingLeft=4;spacingRight=4;overflow=hidden;rotatable=0;points=[[0,0.5],[1,0.5]];portConstraint=eastwest;whiteSpace=wrap;html=1;" vertex="1" parent="inKw64Bg0I8EJ67Byxa1-17">
          <mxGeometry y="104" width="140" height="26" as="geometry" />
        </mxCell>
        <mxCell id="5jHnjjyzmVTFx-L5goQa-1" value="Equipment History" style="swimlane;fontStyle=0;childLayout=stackLayout;horizontal=1;startSize=26;fillColor=none;horizontalStack=0;resizeParent=1;resizeParentMax=0;resizeLast=0;collapsible=1;marginBottom=0;whiteSpace=wrap;html=1;" vertex="1" parent="1">
          <mxGeometry x="-495" y="520" width="140" height="104" as="geometry" />
        </mxCell>
        <mxCell id="5jHnjjyzmVTFx-L5goQa-2" value="list: checkout history" style="text;strokeColor=none;fillColor=none;align=left;verticalAlign=top;spacingLeft=4;spacingRight=4;overflow=hidden;rotatable=0;points=[[0,0.5],[1,0.5]];portConstraint=eastwest;whiteSpace=wrap;html=1;" vertex="1" parent="5jHnjjyzmVTFx-L5goQa-1">
          <mxGeometry y="26" width="140" height="26" as="geometry" />
        </mxCell>
        <mxCell id="5jHnjjyzmVTFx-L5goQa-3" value="list: calibration history" style="text;strokeColor=none;fillColor=none;align=left;verticalAlign=top;spacingLeft=4;spacingRight=4;overflow=hidden;rotatable=0;points=[[0,0.5],[1,0.5]];portConstraint=eastwest;whiteSpace=wrap;html=1;" vertex="1" parent="5jHnjjyzmVTFx-L5goQa-1">
          <mxGeometry y="52" width="140" height="26" as="geometry" />
        </mxCell>
        <mxCell id="5jHnjjyzmVTFx-L5goQa-4" value="list: repair history" style="text;strokeColor=none;fillColor=none;align=left;verticalAlign=top;spacingLeft=4;spacingRight=4;overflow=hidden;rotatable=0;points=[[0,0.5],[1,0.5]];portConstraint=eastwest;whiteSpace=wrap;html=1;" vertex="1" parent="5jHnjjyzmVTFx-L5goQa-1">
          <mxGeometry y="78" width="140" height="26" as="geometry" />
        </mxCell>
        <mxCell id="5jHnjjyzmVTFx-L5goQa-5" value="User History" style="swimlane;fontStyle=0;childLayout=stackLayout;horizontal=1;startSize=26;fillColor=none;horizontalStack=0;resizeParent=1;resizeParentMax=0;resizeLast=0;collapsible=1;marginBottom=0;whiteSpace=wrap;html=1;" vertex="1" parent="1">
          <mxGeometry x="260" y="450" width="140" height="78" as="geometry" />
        </mxCell>
        <mxCell id="5jHnjjyzmVTFx-L5goQa-6" value="list: used equipment" style="text;strokeColor=none;fillColor=none;align=left;verticalAlign=top;spacingLeft=4;spacingRight=4;overflow=hidden;rotatable=0;points=[[0,0.5],[1,0.5]];portConstraint=eastwest;whiteSpace=wrap;html=1;" vertex="1" parent="5jHnjjyzmVTFx-L5goQa-5">
          <mxGeometry y="26" width="140" height="26" as="geometry" />
        </mxCell>
        <mxCell id="5jHnjjyzmVTFx-L5goQa-7" value="list: action log" style="text;strokeColor=none;fillColor=none;align=left;verticalAlign=top;spacingLeft=4;spacingRight=4;overflow=hidden;rotatable=0;points=[[0,0.5],[1,0.5]];portConstraint=eastwest;whiteSpace=wrap;html=1;" vertex="1" parent="5jHnjjyzmVTFx-L5goQa-5">
          <mxGeometry y="52" width="140" height="26" as="geometry" />
        </mxCell>
        <mxCell id="ULfXk3tT-SuGjALfaXAJ-10" value="Scheduler" style="swimlane;fontStyle=0;childLayout=stackLayout;horizontal=1;startSize=26;fillColor=none;horizontalStack=0;resizeParent=1;resizeParentMax=0;resizeLast=0;collapsible=1;marginBottom=0;whiteSpace=wrap;html=1;" vertex="1" parent="1">
          <mxGeometry x="-280" y="150" width="140" height="78" as="geometry" />
        </mxCell>
        <mxCell id="ULfXk3tT-SuGjALfaXAJ-11" value="list: schedule" style="text;strokeColor=none;fillColor=none;align=left;verticalAlign=top;spacingLeft=4;spacingRight=4;overflow=hidden;rotatable=0;points=[[0,0.5],[1,0.5]];portConstraint=eastwest;whiteSpace=wrap;html=1;" vertex="1" parent="ULfXk3tT-SuGjALfaXAJ-10">
          <mxGeometry y="26" width="140" height="26" as="geometry" />
        </mxCell>
        <mxCell id="ULfXk3tT-SuGjALfaXAJ-12" value="list: requests" style="text;strokeColor=none;fillColor=none;align=left;verticalAlign=top;spacingLeft=4;spacingRight=4;overflow=hidden;rotatable=0;points=[[0,0.5],[1,0.5]];portConstraint=eastwest;whiteSpace=wrap;html=1;" vertex="1" parent="ULfXk3tT-SuGjALfaXAJ-10">
          <mxGeometry y="52" width="140" height="26" as="geometry" />
        </mxCell>
        <mxCell id="ULfXk3tT-SuGjALfaXAJ-17" value="" style="endArrow=none;html=1;rounded=0;exitX=0.5;exitY=0;exitDx=0;exitDy=0;" edge="1" parent="1" source="63CyqD5jD6BHnDnro7D2-1">
          <mxGeometry width="50" height="50" relative="1" as="geometry">
            <mxPoint x="120" y="400" as="sourcePoint" />
            <mxPoint x="10" y="270" as="targetPoint" />
          </mxGeometry>
        </mxCell>
        <mxCell id="ULfXk3tT-SuGjALfaXAJ-18" value="" style="endArrow=none;html=1;rounded=0;exitX=0.5;exitY=0;exitDx=0;exitDy=0;" edge="1" parent="1" source="63CyqD5jD6BHnDnro7D2-13">
          <mxGeometry width="50" height="50" relative="1" as="geometry">
            <mxPoint x="120" y="400" as="sourcePoint" />
            <mxPoint x="170" y="270" as="targetPoint" />
          </mxGeometry>
        </mxCell>
        <mxCell id="ULfXk3tT-SuGjALfaXAJ-19" value="" style="endArrow=none;html=1;rounded=0;exitX=0.5;exitY=0;exitDx=0;exitDy=0;" edge="1" parent="1" source="63CyqD5jD6BHnDnro7D2-5">
          <mxGeometry width="50" height="50" relative="1" as="geometry">
            <mxPoint x="180" y="310" as="sourcePoint" />
            <mxPoint x="330" y="270" as="targetPoint" />
          </mxGeometry>
        </mxCell>
        <mxCell id="ULfXk3tT-SuGjALfaXAJ-20" value="" style="endArrow=none;html=1;rounded=0;exitX=0.5;exitY=0;exitDx=0;exitDy=0;" edge="1" parent="1" source="63CyqD5jD6BHnDnro7D2-9">
          <mxGeometry width="50" height="50" relative="1" as="geometry">
            <mxPoint x="340" y="310" as="sourcePoint" />
            <mxPoint x="490" y="270" as="targetPoint" />
          </mxGeometry>
        </mxCell>
        <mxCell id="ULfXk3tT-SuGjALfaXAJ-21" value="" style="endArrow=none;html=1;rounded=0;exitX=0.5;exitY=0;exitDx=0;exitDy=0;" edge="1" parent="1" source="inKw64Bg0I8EJ67Byxa1-1">
          <mxGeometry width="50" height="50" relative="1" as="geometry">
            <mxPoint x="500" y="310" as="sourcePoint" />
            <mxPoint x="650" y="270" as="targetPoint" />
          </mxGeometry>
        </mxCell>
        <mxCell id="ULfXk3tT-SuGjALfaXAJ-22" value="" style="endArrow=none;html=1;rounded=0;" edge="1" parent="1">
          <mxGeometry width="50" height="50" relative="1" as="geometry">
            <mxPoint x="10" y="270" as="sourcePoint" />
            <mxPoint x="650" y="270" as="targetPoint" />
          </mxGeometry>
        </mxCell>
        <mxCell id="ULfXk3tT-SuGjALfaXAJ-23" value="Extends" style="endArrow=block;endSize=16;endFill=0;html=1;rounded=0;" edge="1" parent="1" target="Ed09azPddPTFDHTzW8Lc-5">
          <mxGeometry x="-0.3333" y="-30" width="160" relative="1" as="geometry">
            <mxPoint x="330" y="270" as="sourcePoint" />
            <mxPoint x="220" y="380" as="targetPoint" />
            <mxPoint as="offset" />
          </mxGeometry>
        </mxCell>
        <mxCell id="ULfXk3tT-SuGjALfaXAJ-27" value="" style="endArrow=diamondThin;endFill=1;endSize=24;html=1;rounded=0;" edge="1" parent="1" source="63CyqD5jD6BHnDnro7D2-1" target="5jHnjjyzmVTFx-L5goQa-5">
          <mxGeometry width="160" relative="1" as="geometry">
            <mxPoint x="610" y="490" as="sourcePoint" />
            <mxPoint x="770" y="490" as="targetPoint" />
          </mxGeometry>
        </mxCell>
        <mxCell id="iv-ToAnlOyiLI5YUQ9ga-11" value="has a" style="edgeLabel;html=1;align=center;verticalAlign=middle;resizable=0;points=[];" vertex="1" connectable="0" parent="ULfXk3tT-SuGjALfaXAJ-27">
          <mxGeometry x="0.2292" y="-1" relative="1" as="geometry">
            <mxPoint y="1" as="offset" />
          </mxGeometry>
        </mxCell>
        <mxCell id="iv-ToAnlOyiLI5YUQ9ga-25" value="1" style="edgeLabel;html=1;align=center;verticalAlign=middle;resizable=0;points=[];" vertex="1" connectable="0" parent="ULfXk3tT-SuGjALfaXAJ-27">
          <mxGeometry x="-0.86" y="-1" relative="1" as="geometry">
            <mxPoint as="offset" />
          </mxGeometry>
        </mxCell>
        <mxCell id="iv-ToAnlOyiLI5YUQ9ga-26" value="1" style="edgeLabel;html=1;align=center;verticalAlign=middle;resizable=0;points=[];" vertex="1" connectable="0" parent="ULfXk3tT-SuGjALfaXAJ-27">
          <mxGeometry x="0.7026" y="2" relative="1" as="geometry">
            <mxPoint as="offset" />
          </mxGeometry>
        </mxCell>
        <mxCell id="ULfXk3tT-SuGjALfaXAJ-28" value="" style="endArrow=diamondThin;endFill=1;endSize=24;html=1;rounded=0;" edge="1" parent="1" source="63CyqD5jD6BHnDnro7D2-13" target="5jHnjjyzmVTFx-L5goQa-5">
          <mxGeometry width="160" relative="1" as="geometry">
            <mxPoint x="610" y="490" as="sourcePoint" />
            <mxPoint x="770" y="490" as="targetPoint" />
          </mxGeometry>
        </mxCell>
        <mxCell id="iv-ToAnlOyiLI5YUQ9ga-12" value="has a" style="edgeLabel;html=1;align=center;verticalAlign=middle;resizable=0;points=[];" vertex="1" connectable="0" parent="ULfXk3tT-SuGjALfaXAJ-28">
          <mxGeometry x="-0.2417" relative="1" as="geometry">
            <mxPoint as="offset" />
          </mxGeometry>
        </mxCell>
        <mxCell id="iv-ToAnlOyiLI5YUQ9ga-27" value="1" style="edgeLabel;html=1;align=center;verticalAlign=middle;resizable=0;points=[];" vertex="1" connectable="0" parent="ULfXk3tT-SuGjALfaXAJ-28">
          <mxGeometry x="-0.6991" relative="1" as="geometry">
            <mxPoint as="offset" />
          </mxGeometry>
        </mxCell>
        <mxCell id="iv-ToAnlOyiLI5YUQ9ga-28" value="1" style="edgeLabel;html=1;align=center;verticalAlign=middle;resizable=0;points=[];" vertex="1" connectable="0" parent="ULfXk3tT-SuGjALfaXAJ-28">
          <mxGeometry x="0.4972" relative="1" as="geometry">
            <mxPoint as="offset" />
          </mxGeometry>
        </mxCell>
        <mxCell id="ULfXk3tT-SuGjALfaXAJ-29" value="" style="endArrow=diamondThin;endFill=1;endSize=24;html=1;rounded=0;" edge="1" parent="1" source="63CyqD5jD6BHnDnro7D2-5" target="5jHnjjyzmVTFx-L5goQa-5">
          <mxGeometry width="160" relative="1" as="geometry">
            <mxPoint x="222" y="388" as="sourcePoint" />
            <mxPoint x="298" y="460" as="targetPoint" />
          </mxGeometry>
        </mxCell>
        <mxCell id="iv-ToAnlOyiLI5YUQ9ga-13" value="has a" style="edgeLabel;html=1;align=center;verticalAlign=middle;resizable=0;points=[];" vertex="1" connectable="0" parent="ULfXk3tT-SuGjALfaXAJ-29">
          <mxGeometry x="-0.2041" y="1" relative="1" as="geometry">
            <mxPoint as="offset" />
          </mxGeometry>
        </mxCell>
        <mxCell id="iv-ToAnlOyiLI5YUQ9ga-29" value="1" style="edgeLabel;html=1;align=center;verticalAlign=middle;resizable=0;points=[];" vertex="1" connectable="0" parent="ULfXk3tT-SuGjALfaXAJ-29">
          <mxGeometry x="-0.7347" y="-2" relative="1" as="geometry">
            <mxPoint as="offset" />
          </mxGeometry>
        </mxCell>
        <mxCell id="iv-ToAnlOyiLI5YUQ9ga-30" value="1" style="edgeLabel;html=1;align=center;verticalAlign=middle;resizable=0;points=[];" vertex="1" connectable="0" parent="ULfXk3tT-SuGjALfaXAJ-29">
          <mxGeometry x="0.4082" relative="1" as="geometry">
            <mxPoint as="offset" />
          </mxGeometry>
        </mxCell>
        <mxCell id="ULfXk3tT-SuGjALfaXAJ-30" value="" style="endArrow=diamondThin;endFill=1;endSize=24;html=1;rounded=0;" edge="1" parent="1" source="63CyqD5jD6BHnDnro7D2-9" target="5jHnjjyzmVTFx-L5goQa-5">
          <mxGeometry width="160" relative="1" as="geometry">
            <mxPoint x="610" y="490" as="sourcePoint" />
            <mxPoint x="770" y="490" as="targetPoint" />
          </mxGeometry>
        </mxCell>
        <mxCell id="iv-ToAnlOyiLI5YUQ9ga-14" value="has a" style="edgeLabel;html=1;align=center;verticalAlign=middle;resizable=0;points=[];" vertex="1" connectable="0" parent="ULfXk3tT-SuGjALfaXAJ-30">
          <mxGeometry x="-0.1917" y="1" relative="1" as="geometry">
            <mxPoint x="-1" as="offset" />
          </mxGeometry>
        </mxCell>
        <mxCell id="iv-ToAnlOyiLI5YUQ9ga-31" value="1" style="edgeLabel;html=1;align=center;verticalAlign=middle;resizable=0;points=[];" vertex="1" connectable="0" parent="ULfXk3tT-SuGjALfaXAJ-30">
          <mxGeometry x="-0.7478" y="1" relative="1" as="geometry">
            <mxPoint as="offset" />
          </mxGeometry>
        </mxCell>
        <mxCell id="iv-ToAnlOyiLI5YUQ9ga-32" value="1" style="edgeLabel;html=1;align=center;verticalAlign=middle;resizable=0;points=[];" vertex="1" connectable="0" parent="ULfXk3tT-SuGjALfaXAJ-30">
          <mxGeometry x="0.5088" y="2" relative="1" as="geometry">
            <mxPoint y="-1" as="offset" />
          </mxGeometry>
        </mxCell>
        <mxCell id="ULfXk3tT-SuGjALfaXAJ-31" value="" style="endArrow=diamondThin;endFill=1;endSize=24;html=1;rounded=0;" edge="1" parent="1" source="inKw64Bg0I8EJ67Byxa1-1" target="5jHnjjyzmVTFx-L5goQa-5">
          <mxGeometry width="160" relative="1" as="geometry">
            <mxPoint x="610" y="490" as="sourcePoint" />
            <mxPoint x="770" y="490" as="targetPoint" />
          </mxGeometry>
        </mxCell>
        <mxCell id="iv-ToAnlOyiLI5YUQ9ga-15" value="has a" style="edgeLabel;html=1;align=center;verticalAlign=middle;resizable=0;points=[];" vertex="1" connectable="0" parent="ULfXk3tT-SuGjALfaXAJ-31">
          <mxGeometry x="-0.1551" relative="1" as="geometry">
            <mxPoint as="offset" />
          </mxGeometry>
        </mxCell>
        <mxCell id="iv-ToAnlOyiLI5YUQ9ga-33" value="1" style="edgeLabel;html=1;align=center;verticalAlign=middle;resizable=0;points=[];" vertex="1" connectable="0" parent="ULfXk3tT-SuGjALfaXAJ-31">
          <mxGeometry x="-0.836" y="1" relative="1" as="geometry">
            <mxPoint as="offset" />
          </mxGeometry>
        </mxCell>
        <mxCell id="iv-ToAnlOyiLI5YUQ9ga-34" value="1" style="edgeLabel;html=1;align=center;verticalAlign=middle;resizable=0;points=[];" vertex="1" connectable="0" parent="ULfXk3tT-SuGjALfaXAJ-31">
          <mxGeometry x="0.6983" y="2" relative="1" as="geometry">
            <mxPoint as="offset" />
          </mxGeometry>
        </mxCell>
        <mxCell id="ULfXk3tT-SuGjALfaXAJ-32" value="" style="endArrow=diamondThin;endFill=1;endSize=24;html=1;rounded=0;" edge="1" parent="1" source="inKw64Bg0I8EJ67Byxa1-5" target="5jHnjjyzmVTFx-L5goQa-1">
          <mxGeometry width="160" relative="1" as="geometry">
            <mxPoint x="610" y="490" as="sourcePoint" />
            <mxPoint x="770" y="490" as="targetPoint" />
          </mxGeometry>
        </mxCell>
        <mxCell id="iv-ToAnlOyiLI5YUQ9ga-8" value="has a" style="edgeLabel;html=1;align=center;verticalAlign=middle;resizable=0;points=[];" vertex="1" connectable="0" parent="ULfXk3tT-SuGjALfaXAJ-32">
          <mxGeometry x="-0.2105" y="1" relative="1" as="geometry">
            <mxPoint as="offset" />
          </mxGeometry>
        </mxCell>
        <mxCell id="ULfXk3tT-SuGjALfaXAJ-33" value="" style="endArrow=diamondThin;endFill=0;endSize=24;html=1;rounded=0;" edge="1" parent="1" target="inKw64Bg0I8EJ67Byxa1-5">
          <mxGeometry width="160" relative="1" as="geometry">
            <mxPoint x="-425" y="228" as="sourcePoint" />
            <mxPoint x="770" y="538" as="targetPoint" />
          </mxGeometry>
        </mxCell>
        <mxCell id="iv-ToAnlOyiLI5YUQ9ga-7" value="contains" style="edgeLabel;html=1;align=center;verticalAlign=middle;resizable=0;points=[];" vertex="1" connectable="0" parent="ULfXk3tT-SuGjALfaXAJ-33">
          <mxGeometry x="-0.1944" relative="1" as="geometry">
            <mxPoint as="offset" />
          </mxGeometry>
        </mxCell>
        <mxCell id="iv-ToAnlOyiLI5YUQ9ga-45" value="1" style="edgeLabel;html=1;align=center;verticalAlign=middle;resizable=0;points=[];" vertex="1" connectable="0" parent="ULfXk3tT-SuGjALfaXAJ-33">
          <mxGeometry x="-0.6944" y="1" relative="1" as="geometry">
            <mxPoint as="offset" />
          </mxGeometry>
        </mxCell>
        <mxCell id="iv-ToAnlOyiLI5YUQ9ga-46" value="0..*" style="edgeLabel;html=1;align=center;verticalAlign=middle;resizable=0;points=[];" vertex="1" connectable="0" parent="ULfXk3tT-SuGjALfaXAJ-33">
          <mxGeometry x="0.4167" y="4" relative="1" as="geometry">
            <mxPoint as="offset" />
          </mxGeometry>
        </mxCell>
        <mxCell id="ULfXk3tT-SuGjALfaXAJ-34" value="" style="endArrow=diamondThin;endFill=0;endSize=24;html=1;rounded=0;" edge="1" parent="1" source="63CyqD5jD6BHnDnro7D2-1" target="inKw64Bg0I8EJ67Byxa1-9">
          <mxGeometry width="160" relative="1" as="geometry">
            <mxPoint x="610" y="538" as="sourcePoint" />
            <mxPoint x="770" y="538" as="targetPoint" />
          </mxGeometry>
        </mxCell>
        <mxCell id="iv-ToAnlOyiLI5YUQ9ga-9" value="assigned" style="edgeLabel;html=1;align=center;verticalAlign=middle;resizable=0;points=[];" vertex="1" connectable="0" parent="ULfXk3tT-SuGjALfaXAJ-34">
          <mxGeometry x="-0.1661" y="-1" relative="1" as="geometry">
            <mxPoint as="offset" />
          </mxGeometry>
        </mxCell>
        <mxCell id="iv-ToAnlOyiLI5YUQ9ga-21" value="1" style="edgeLabel;html=1;align=center;verticalAlign=middle;resizable=0;points=[];" vertex="1" connectable="0" parent="ULfXk3tT-SuGjALfaXAJ-34">
          <mxGeometry x="-0.8046" y="-3" relative="1" as="geometry">
            <mxPoint as="offset" />
          </mxGeometry>
        </mxCell>
        <mxCell id="iv-ToAnlOyiLI5YUQ9ga-22" value="0..*" style="edgeLabel;html=1;align=center;verticalAlign=middle;resizable=0;points=[];" vertex="1" connectable="0" parent="ULfXk3tT-SuGjALfaXAJ-34">
          <mxGeometry x="0.5126" y="-1" relative="1" as="geometry">
            <mxPoint as="offset" />
          </mxGeometry>
        </mxCell>
        <mxCell id="ULfXk3tT-SuGjALfaXAJ-35" value="" style="endArrow=diamondThin;endFill=0;endSize=24;html=1;rounded=0;" edge="1" parent="1" source="63CyqD5jD6BHnDnro7D2-13" target="inKw64Bg0I8EJ67Byxa1-9">
          <mxGeometry width="160" relative="1" as="geometry">
            <mxPoint x="610" y="538" as="sourcePoint" />
            <mxPoint x="770" y="538" as="targetPoint" />
          </mxGeometry>
        </mxCell>
        <mxCell id="iv-ToAnlOyiLI5YUQ9ga-10" value="assigned" style="edgeLabel;html=1;align=center;verticalAlign=middle;resizable=0;points=[];" vertex="1" connectable="0" parent="ULfXk3tT-SuGjALfaXAJ-35">
          <mxGeometry x="-0.0767" y="1" relative="1" as="geometry">
            <mxPoint as="offset" />
          </mxGeometry>
        </mxCell>
        <mxCell id="iv-ToAnlOyiLI5YUQ9ga-23" value="1" style="edgeLabel;html=1;align=center;verticalAlign=middle;resizable=0;points=[];" vertex="1" connectable="0" parent="ULfXk3tT-SuGjALfaXAJ-35">
          <mxGeometry x="-0.783" y="2" relative="1" as="geometry">
            <mxPoint as="offset" />
          </mxGeometry>
        </mxCell>
        <mxCell id="iv-ToAnlOyiLI5YUQ9ga-24" value="0..*" style="edgeLabel;html=1;align=center;verticalAlign=middle;resizable=0;points=[];" vertex="1" connectable="0" parent="ULfXk3tT-SuGjALfaXAJ-35">
          <mxGeometry x="0.5248" y="-1" relative="1" as="geometry">
            <mxPoint as="offset" />
          </mxGeometry>
        </mxCell>
        <mxCell id="ULfXk3tT-SuGjALfaXAJ-36" value="" style="endArrow=diamondThin;endFill=0;endSize=24;html=1;rounded=0;" edge="1" parent="1" source="ULfXk3tT-SuGjALfaXAJ-10" target="inKw64Bg0I8EJ67Byxa1-13">
          <mxGeometry width="160" relative="1" as="geometry">
            <mxPoint x="610" y="538" as="sourcePoint" />
            <mxPoint x="770" y="538" as="targetPoint" />
          </mxGeometry>
        </mxCell>
        <mxCell id="iv-ToAnlOyiLI5YUQ9ga-6" value="&amp;lt;updates" style="edgeLabel;html=1;align=center;verticalAlign=middle;resizable=0;points=[];" vertex="1" connectable="0" parent="ULfXk3tT-SuGjALfaXAJ-36">
          <mxGeometry x="-0.1467" y="1" relative="1" as="geometry">
            <mxPoint as="offset" />
          </mxGeometry>
        </mxCell>
        <mxCell id="ULfXk3tT-SuGjALfaXAJ-37" value="" style="endArrow=diamondThin;endFill=0;endSize=24;html=1;rounded=0;" edge="1" parent="1" source="inKw64Bg0I8EJ67Byxa1-17" target="ULfXk3tT-SuGjALfaXAJ-10">
          <mxGeometry width="160" relative="1" as="geometry">
            <mxPoint x="610" y="538" as="sourcePoint" />
            <mxPoint x="770" y="538" as="targetPoint" />
          </mxGeometry>
        </mxCell>
        <mxCell id="iv-ToAnlOyiLI5YUQ9ga-5" value="contains" style="edgeLabel;html=1;align=center;verticalAlign=middle;resizable=0;points=[];" vertex="1" connectable="0" parent="ULfXk3tT-SuGjALfaXAJ-37">
          <mxGeometry x="-0.3333" relative="1" as="geometry">
            <mxPoint as="offset" />
          </mxGeometry>
        </mxCell>
        <mxCell id="iv-ToAnlOyiLI5YUQ9ga-41" value="0..*" style="edgeLabel;html=1;align=center;verticalAlign=middle;resizable=0;points=[];" vertex="1" connectable="0" parent="ULfXk3tT-SuGjALfaXAJ-37">
          <mxGeometry x="-0.6667" relative="1" as="geometry">
            <mxPoint as="offset" />
          </mxGeometry>
        </mxCell>
        <mxCell id="iv-ToAnlOyiLI5YUQ9ga-42" value="1" style="edgeLabel;html=1;align=center;verticalAlign=middle;resizable=0;points=[];" vertex="1" connectable="0" parent="ULfXk3tT-SuGjALfaXAJ-37">
          <mxGeometry x="0.25" y="1" relative="1" as="geometry">
            <mxPoint as="offset" />
          </mxGeometry>
        </mxCell>
        <mxCell id="ULfXk3tT-SuGjALfaXAJ-38" value="" style="endArrow=diamondThin;endFill=0;endSize=24;html=1;rounded=0;" edge="1" parent="1" source="63CyqD5jD6BHnDnro7D2-1" target="inKw64Bg0I8EJ67Byxa1-17">
          <mxGeometry width="160" relative="1" as="geometry">
            <mxPoint x="610" y="538" as="sourcePoint" />
            <mxPoint x="770" y="538" as="targetPoint" />
          </mxGeometry>
        </mxCell>
        <mxCell id="iv-ToAnlOyiLI5YUQ9ga-19" value="&amp;lt;makes a" style="edgeLabel;html=1;align=center;verticalAlign=middle;resizable=0;points=[];" vertex="1" connectable="0" parent="ULfXk3tT-SuGjALfaXAJ-38">
          <mxGeometry x="-0.1291" y="-1" relative="1" as="geometry">
            <mxPoint as="offset" />
          </mxGeometry>
        </mxCell>
        <mxCell id="ULfXk3tT-SuGjALfaXAJ-39" value="" style="endArrow=diamondThin;endFill=0;endSize=24;html=1;rounded=0;" edge="1" parent="1" source="63CyqD5jD6BHnDnro7D2-13" target="inKw64Bg0I8EJ67Byxa1-17">
          <mxGeometry width="160" relative="1" as="geometry">
            <mxPoint x="610" y="538" as="sourcePoint" />
            <mxPoint x="170" y="740" as="targetPoint" />
            <Array as="points">
              <mxPoint x="170" y="630" />
              <mxPoint x="-160" y="630" />
            </Array>
          </mxGeometry>
        </mxCell>
        <mxCell id="iv-ToAnlOyiLI5YUQ9ga-20" value="&amp;lt;makes a" style="edgeLabel;html=1;align=center;verticalAlign=middle;resizable=0;points=[];" vertex="1" connectable="0" parent="ULfXk3tT-SuGjALfaXAJ-39">
          <mxGeometry x="0.0286" y="1" relative="1" as="geometry">
            <mxPoint as="offset" />
          </mxGeometry>
        </mxCell>
        <mxCell id="iv-ToAnlOyiLI5YUQ9ga-48" value="0..*" style="edgeLabel;html=1;align=center;verticalAlign=middle;resizable=0;points=[];" vertex="1" connectable="0" parent="ULfXk3tT-SuGjALfaXAJ-39">
          <mxGeometry x="0.9088" y="-1" relative="1" as="geometry">
            <mxPoint as="offset" />
          </mxGeometry>
        </mxCell>
        <mxCell id="iv-ToAnlOyiLI5YUQ9ga-49" value="1" style="edgeLabel;html=1;align=center;verticalAlign=middle;resizable=0;points=[];" vertex="1" connectable="0" parent="ULfXk3tT-SuGjALfaXAJ-39">
          <mxGeometry x="-0.9567" y="4" relative="1" as="geometry">
            <mxPoint as="offset" />
          </mxGeometry>
        </mxCell>
        <mxCell id="iv-ToAnlOyiLI5YUQ9ga-1" value="" style="endArrow=diamondThin;endFill=0;endSize=24;html=1;rounded=0;" edge="1" parent="1" source="63CyqD5jD6BHnDnro7D2-5" target="inKw64Bg0I8EJ67Byxa1-5">
          <mxGeometry width="160" relative="1" as="geometry">
            <mxPoint x="610" y="538" as="sourcePoint" />
            <mxPoint x="-430" y="660" as="targetPoint" />
            <Array as="points">
              <mxPoint x="450" y="450" />
              <mxPoint x="460" y="670" />
              <mxPoint x="-200" y="660" />
            </Array>
          </mxGeometry>
        </mxCell>
        <mxCell id="iv-ToAnlOyiLI5YUQ9ga-18" value="&amp;lt;create/modify" style="edgeLabel;html=1;align=center;verticalAlign=middle;resizable=0;points=[];" vertex="1" connectable="0" parent="iv-ToAnlOyiLI5YUQ9ga-1">
          <mxGeometry x="-0.0294" y="-2" relative="1" as="geometry">
            <mxPoint as="offset" />
          </mxGeometry>
        </mxCell>
        <mxCell id="iv-ToAnlOyiLI5YUQ9ga-37" value="1" style="edgeLabel;html=1;align=center;verticalAlign=middle;resizable=0;points=[];" vertex="1" connectable="0" parent="iv-ToAnlOyiLI5YUQ9ga-1">
          <mxGeometry x="-0.9743" y="1" relative="1" as="geometry">
            <mxPoint as="offset" />
          </mxGeometry>
        </mxCell>
        <mxCell id="iv-ToAnlOyiLI5YUQ9ga-38" value="0..*" style="edgeLabel;html=1;align=center;verticalAlign=middle;resizable=0;points=[];" vertex="1" connectable="0" parent="iv-ToAnlOyiLI5YUQ9ga-1">
          <mxGeometry x="0.9457" y="-1" relative="1" as="geometry">
            <mxPoint as="offset" />
          </mxGeometry>
        </mxCell>
        <mxCell id="iv-ToAnlOyiLI5YUQ9ga-3" value="" style="endArrow=diamondThin;endFill=0;endSize=24;html=1;rounded=0;" edge="1" parent="1" source="63CyqD5jD6BHnDnro7D2-9" target="inKw64Bg0I8EJ67Byxa1-5">
          <mxGeometry width="160" relative="1" as="geometry">
            <mxPoint x="610" y="538" as="sourcePoint" />
            <mxPoint x="-520" y="700" as="targetPoint" />
            <Array as="points">
              <mxPoint x="500" y="700" />
              <mxPoint x="-210" y="700" />
            </Array>
          </mxGeometry>
        </mxCell>
        <mxCell id="iv-ToAnlOyiLI5YUQ9ga-17" value="&amp;lt;create/modify" style="edgeLabel;html=1;align=center;verticalAlign=middle;resizable=0;points=[];" vertex="1" connectable="0" parent="iv-ToAnlOyiLI5YUQ9ga-3">
          <mxGeometry x="-0.0993" y="-2" relative="1" as="geometry">
            <mxPoint as="offset" />
          </mxGeometry>
        </mxCell>
        <mxCell id="iv-ToAnlOyiLI5YUQ9ga-35" value="1" style="edgeLabel;html=1;align=center;verticalAlign=middle;resizable=0;points=[];" vertex="1" connectable="0" parent="iv-ToAnlOyiLI5YUQ9ga-3">
          <mxGeometry x="-0.9758" relative="1" as="geometry">
            <mxPoint as="offset" />
          </mxGeometry>
        </mxCell>
        <mxCell id="iv-ToAnlOyiLI5YUQ9ga-39" value="0..*" style="edgeLabel;html=1;align=center;verticalAlign=middle;resizable=0;points=[];" vertex="1" connectable="0" parent="iv-ToAnlOyiLI5YUQ9ga-3">
          <mxGeometry x="0.9332" y="-1" relative="1" as="geometry">
            <mxPoint x="-1" as="offset" />
          </mxGeometry>
        </mxCell>
        <mxCell id="iv-ToAnlOyiLI5YUQ9ga-4" value="" style="endArrow=diamondThin;endFill=0;endSize=24;html=1;rounded=0;" edge="1" parent="1" source="inKw64Bg0I8EJ67Byxa1-1" target="inKw64Bg0I8EJ67Byxa1-5">
          <mxGeometry width="160" relative="1" as="geometry">
            <mxPoint x="830" y="540" as="sourcePoint" />
            <mxPoint x="-540" y="720" as="targetPoint" />
            <Array as="points">
              <mxPoint x="660" y="720" />
              <mxPoint x="-240" y="720" />
            </Array>
          </mxGeometry>
        </mxCell>
        <mxCell id="iv-ToAnlOyiLI5YUQ9ga-16" value="&amp;lt;create/modify" style="edgeLabel;html=1;align=center;verticalAlign=middle;resizable=0;points=[];" vertex="1" connectable="0" parent="iv-ToAnlOyiLI5YUQ9ga-4">
          <mxGeometry x="-0.0253" y="2" relative="1" as="geometry">
            <mxPoint as="offset" />
          </mxGeometry>
        </mxCell>
        <mxCell id="iv-ToAnlOyiLI5YUQ9ga-36" value="1" style="edgeLabel;html=1;align=center;verticalAlign=middle;resizable=0;points=[];" vertex="1" connectable="0" parent="iv-ToAnlOyiLI5YUQ9ga-4">
          <mxGeometry x="-0.9818" y="2" relative="1" as="geometry">
            <mxPoint as="offset" />
          </mxGeometry>
        </mxCell>
        <mxCell id="iv-ToAnlOyiLI5YUQ9ga-40" value="0..*" style="edgeLabel;html=1;align=center;verticalAlign=middle;resizable=0;points=[];" vertex="1" connectable="0" parent="iv-ToAnlOyiLI5YUQ9ga-4">
          <mxGeometry x="0.9164" relative="1" as="geometry">
            <mxPoint as="offset" />
          </mxGeometry>
        </mxCell>
        <mxCell id="iv-ToAnlOyiLI5YUQ9ga-43" value="1" style="text;html=1;align=center;verticalAlign=middle;resizable=0;points=[];autosize=1;strokeColor=none;fillColor=none;" vertex="1" parent="1">
          <mxGeometry x="-345" y="158" width="30" height="30" as="geometry" />
        </mxCell>
        <mxCell id="iv-ToAnlOyiLI5YUQ9ga-44" value="1" style="text;html=1;align=center;verticalAlign=middle;resizable=0;points=[];autosize=1;strokeColor=none;fillColor=none;" vertex="1" parent="1">
          <mxGeometry x="-305" y="158" width="30" height="30" as="geometry" />
        </mxCell>
        <mxCell id="iv-ToAnlOyiLI5YUQ9ga-47" value="1&lt;br&gt;1" style="text;html=1;align=center;verticalAlign=middle;resizable=0;points=[];autosize=1;strokeColor=none;fillColor=none;" vertex="1" parent="1">
          <mxGeometry x="-460" y="482" width="30" height="40" as="geometry" />
        </mxCell>
        <mxCell id="iv-ToAnlOyiLI5YUQ9ga-50" value="0..*" style="text;html=1;align=center;verticalAlign=middle;resizable=0;points=[];autosize=1;strokeColor=none;fillColor=none;" vertex="1" parent="1">
          <mxGeometry x="-150" y="358" width="40" height="30" as="geometry" />
        </mxCell>
        <mxCell id="iv-ToAnlOyiLI5YUQ9ga-51" value="1" style="text;html=1;align=center;verticalAlign=middle;resizable=0;points=[];autosize=1;strokeColor=none;fillColor=none;" vertex="1" parent="1">
          <mxGeometry x="-85" y="348" width="30" height="30" as="geometry" />
        </mxCell>
      </root>
    </mxGraphModel>
  </diagram>
  <diagram id="poXg6EWFQPZ94JnT9CvE" name="Class Diagram">
    <mxGraphModel dx="2524" dy="844" grid="1" gridSize="10" guides="1" tooltips="1" connect="1" arrows="1" fold="1" page="1" pageScale="1" pageWidth="850" pageHeight="1100" math="0" shadow="0">
      <root>
        <mxCell id="0" />
        <mxCell id="1" parent="0" />
        <mxCell id="IqlPtiEgNHoKhon_FXiU-1" value="&amp;lt;&amp;lt;abstract&amp;gt;&amp;gt;&lt;br&gt;User" style="swimlane;fontStyle=1;align=center;verticalAlign=top;childLayout=stackLayout;horizontal=1;startSize=40;horizontalStack=0;resizeParent=1;resizeParentMax=0;resizeLast=0;collapsible=1;marginBottom=0;whiteSpace=wrap;html=1;" vertex="1" parent="1">
          <mxGeometry x="-115" y="90" width="160" height="152" as="geometry" />
        </mxCell>
        <mxCell id="_BTWglTCmAn76fa-fAs1-6" value="public int: employee num" style="text;strokeColor=none;fillColor=none;align=left;verticalAlign=top;spacingLeft=4;spacingRight=4;overflow=hidden;rotatable=0;points=[[0,0.5],[1,0.5]];portConstraint=eastwest;whiteSpace=wrap;html=1;" vertex="1" parent="IqlPtiEgNHoKhon_FXiU-1">
          <mxGeometry y="40" width="160" height="26" as="geometry" />
        </mxCell>
        <mxCell id="_BTWglTCmAn76fa-fAs1-8" value="public string: name" style="text;strokeColor=none;fillColor=none;align=left;verticalAlign=top;spacingLeft=4;spacingRight=4;overflow=hidden;rotatable=0;points=[[0,0.5],[1,0.5]];portConstraint=eastwest;whiteSpace=wrap;html=1;" vertex="1" parent="IqlPtiEgNHoKhon_FXiU-1">
          <mxGeometry y="66" width="160" height="26" as="geometry" />
        </mxCell>
        <mxCell id="_BTWglTCmAn76fa-fAs1-7" value="public string: email" style="text;strokeColor=none;fillColor=none;align=left;verticalAlign=top;spacingLeft=4;spacingRight=4;overflow=hidden;rotatable=0;points=[[0,0.5],[1,0.5]];portConstraint=eastwest;whiteSpace=wrap;html=1;" vertex="1" parent="IqlPtiEgNHoKhon_FXiU-1">
          <mxGeometry y="92" width="160" height="26" as="geometry" />
        </mxCell>
        <mxCell id="IqlPtiEgNHoKhon_FXiU-2" value="public string: phone" style="text;strokeColor=none;fillColor=none;align=left;verticalAlign=top;spacingLeft=4;spacingRight=4;overflow=hidden;rotatable=0;points=[[0,0.5],[1,0.5]];portConstraint=eastwest;whiteSpace=wrap;html=1;" vertex="1" parent="IqlPtiEgNHoKhon_FXiU-1">
          <mxGeometry y="118" width="160" height="26" as="geometry" />
        </mxCell>
        <mxCell id="IqlPtiEgNHoKhon_FXiU-3" value="" style="line;strokeWidth=1;fillColor=none;align=left;verticalAlign=middle;spacingTop=-1;spacingLeft=3;spacingRight=3;rotatable=0;labelPosition=right;points=[];portConstraint=eastwest;strokeColor=inherit;" vertex="1" parent="IqlPtiEgNHoKhon_FXiU-1">
          <mxGeometry y="144" width="160" height="8" as="geometry" />
        </mxCell>
        <mxCell id="Ki7B4nN2D2McaFp0f1-1-1" value="Manager" style="swimlane;fontStyle=1;align=center;verticalAlign=top;childLayout=stackLayout;horizontal=1;startSize=26;horizontalStack=0;resizeParent=1;resizeParentMax=0;resizeLast=0;collapsible=1;marginBottom=0;whiteSpace=wrap;html=1;" vertex="1" parent="1">
          <mxGeometry x="-495" y="290" width="160" height="150" as="geometry" />
        </mxCell>
        <mxCell id="Fdo3-6Dcw71vjPuEaioU-6" value="public list: employees" style="text;strokeColor=none;fillColor=none;align=left;verticalAlign=top;spacingLeft=4;spacingRight=4;overflow=hidden;rotatable=0;points=[[0,0.5],[1,0.5]];portConstraint=eastwest;whiteSpace=wrap;html=1;" vertex="1" parent="Ki7B4nN2D2McaFp0f1-1-1">
          <mxGeometry y="26" width="160" height="26" as="geometry" />
        </mxCell>
        <mxCell id="Ki7B4nN2D2McaFp0f1-1-2" value="public list: projects" style="text;strokeColor=none;fillColor=none;align=left;verticalAlign=top;spacingLeft=4;spacingRight=4;overflow=hidden;rotatable=0;points=[[0,0.5],[1,0.5]];portConstraint=eastwest;whiteSpace=wrap;html=1;" vertex="1" parent="Ki7B4nN2D2McaFp0f1-1-1">
          <mxGeometry y="52" width="160" height="26" as="geometry" />
        </mxCell>
        <mxCell id="Ki7B4nN2D2McaFp0f1-1-3" value="" style="line;strokeWidth=1;fillColor=none;align=left;verticalAlign=middle;spacingTop=-1;spacingLeft=3;spacingRight=3;rotatable=0;labelPosition=right;points=[];portConstraint=eastwest;strokeColor=inherit;" vertex="1" parent="Ki7B4nN2D2McaFp0f1-1-1">
          <mxGeometry y="78" width="160" height="8" as="geometry" />
        </mxCell>
        <mxCell id="euuW4s3-k8BCBoj_Zb8h-1" value="requestEquipment(equip, date): void" style="text;strokeColor=none;fillColor=none;align=left;verticalAlign=top;spacingLeft=4;spacingRight=4;overflow=hidden;rotatable=0;points=[[0,0.5],[1,0.5]];portConstraint=eastwest;whiteSpace=wrap;html=1;" vertex="1" parent="Ki7B4nN2D2McaFp0f1-1-1">
          <mxGeometry y="86" width="160" height="34" as="geometry" />
        </mxCell>
        <mxCell id="Ki7B4nN2D2McaFp0f1-1-4" value="viewEquipment(): list" style="text;strokeColor=none;fillColor=none;align=left;verticalAlign=top;spacingLeft=4;spacingRight=4;overflow=hidden;rotatable=0;points=[[0,0.5],[1,0.5]];portConstraint=eastwest;whiteSpace=wrap;html=1;" vertex="1" parent="Ki7B4nN2D2McaFp0f1-1-1">
          <mxGeometry y="120" width="160" height="30" as="geometry" />
        </mxCell>
        <mxCell id="Ki7B4nN2D2McaFp0f1-1-5" value="Tech/Engineer" style="swimlane;fontStyle=1;align=center;verticalAlign=top;childLayout=stackLayout;horizontal=1;startSize=26;horizontalStack=0;resizeParent=1;resizeParentMax=0;resizeLast=0;collapsible=1;marginBottom=0;whiteSpace=wrap;html=1;" vertex="1" parent="1">
          <mxGeometry x="-305" y="290" width="160" height="150" as="geometry" />
        </mxCell>
        <mxCell id="Ki7B4nN2D2McaFp0f1-1-6" value="public list: projects" style="text;strokeColor=none;fillColor=none;align=left;verticalAlign=top;spacingLeft=4;spacingRight=4;overflow=hidden;rotatable=0;points=[[0,0.5],[1,0.5]];portConstraint=eastwest;whiteSpace=wrap;html=1;" vertex="1" parent="Ki7B4nN2D2McaFp0f1-1-5">
          <mxGeometry y="26" width="160" height="26" as="geometry" />
        </mxCell>
        <mxCell id="eCiRI9yNZcKOhbQpCdR5-2" value="public int: level" style="text;strokeColor=none;fillColor=none;align=left;verticalAlign=top;spacingLeft=4;spacingRight=4;overflow=hidden;rotatable=0;points=[[0,0.5],[1,0.5]];portConstraint=eastwest;whiteSpace=wrap;html=1;" vertex="1" parent="Ki7B4nN2D2McaFp0f1-1-5">
          <mxGeometry y="52" width="160" height="26" as="geometry" />
        </mxCell>
        <mxCell id="Ki7B4nN2D2McaFp0f1-1-7" value="" style="line;strokeWidth=1;fillColor=none;align=left;verticalAlign=middle;spacingTop=-1;spacingLeft=3;spacingRight=3;rotatable=0;labelPosition=right;points=[];portConstraint=eastwest;strokeColor=inherit;" vertex="1" parent="Ki7B4nN2D2McaFp0f1-1-5">
          <mxGeometry y="78" width="160" height="8" as="geometry" />
        </mxCell>
        <mxCell id="euuW4s3-k8BCBoj_Zb8h-2" value="requestEquipment(equip, date): void" style="text;strokeColor=none;fillColor=none;align=left;verticalAlign=top;spacingLeft=4;spacingRight=4;overflow=hidden;rotatable=0;points=[[0,0.5],[1,0.5]];portConstraint=eastwest;whiteSpace=wrap;html=1;" vertex="1" parent="Ki7B4nN2D2McaFp0f1-1-5">
          <mxGeometry y="86" width="160" height="34" as="geometry" />
        </mxCell>
        <mxCell id="Ki7B4nN2D2McaFp0f1-1-8" value="viewEquipment(): list" style="text;strokeColor=none;fillColor=none;align=left;verticalAlign=top;spacingLeft=4;spacingRight=4;overflow=hidden;rotatable=0;points=[[0,0.5],[1,0.5]];portConstraint=eastwest;whiteSpace=wrap;html=1;" vertex="1" parent="Ki7B4nN2D2McaFp0f1-1-5">
          <mxGeometry y="120" width="160" height="30" as="geometry" />
        </mxCell>
        <mxCell id="Ki7B4nN2D2McaFp0f1-1-9" value="S&amp;amp;R" style="swimlane;fontStyle=1;align=center;verticalAlign=top;childLayout=stackLayout;horizontal=1;startSize=26;horizontalStack=0;resizeParent=1;resizeParentMax=0;resizeLast=0;collapsible=1;marginBottom=0;whiteSpace=wrap;html=1;" vertex="1" parent="1">
          <mxGeometry x="-115" y="290" width="160" height="150" as="geometry" />
        </mxCell>
        <mxCell id="Ki7B4nN2D2McaFp0f1-1-10" value="public string: department" style="text;strokeColor=none;fillColor=none;align=left;verticalAlign=top;spacingLeft=4;spacingRight=4;overflow=hidden;rotatable=0;points=[[0,0.5],[1,0.5]];portConstraint=eastwest;whiteSpace=wrap;html=1;" vertex="1" parent="Ki7B4nN2D2McaFp0f1-1-9">
          <mxGeometry y="26" width="160" height="26" as="geometry" />
        </mxCell>
        <mxCell id="Ki7B4nN2D2McaFp0f1-1-11" value="" style="line;strokeWidth=1;fillColor=none;align=left;verticalAlign=middle;spacingTop=-1;spacingLeft=3;spacingRight=3;rotatable=0;labelPosition=right;points=[];portConstraint=eastwest;strokeColor=inherit;" vertex="1" parent="Ki7B4nN2D2McaFp0f1-1-9">
          <mxGeometry y="52" width="160" height="8" as="geometry" />
        </mxCell>
        <mxCell id="Ki7B4nN2D2McaFp0f1-1-12" value="addEquipment(equip): void" style="text;strokeColor=none;fillColor=none;align=left;verticalAlign=top;spacingLeft=4;spacingRight=4;overflow=hidden;rotatable=0;points=[[0,0.5],[1,0.5]];portConstraint=eastwest;whiteSpace=wrap;html=1;" vertex="1" parent="Ki7B4nN2D2McaFp0f1-1-9">
          <mxGeometry y="60" width="160" height="26" as="geometry" />
        </mxCell>
        <mxCell id="euuW4s3-k8BCBoj_Zb8h-3" value="modifyEquipment(equip, values): void" style="text;strokeColor=none;fillColor=none;align=left;verticalAlign=top;spacingLeft=4;spacingRight=4;overflow=hidden;rotatable=0;points=[[0,0.5],[1,0.5]];portConstraint=eastwest;whiteSpace=wrap;html=1;" vertex="1" parent="Ki7B4nN2D2McaFp0f1-1-9">
          <mxGeometry y="86" width="160" height="34" as="geometry" />
        </mxCell>
        <mxCell id="euuW4s3-k8BCBoj_Zb8h-7" value="viewEquipment(): list" style="text;strokeColor=none;fillColor=none;align=left;verticalAlign=top;spacingLeft=4;spacingRight=4;overflow=hidden;rotatable=0;points=[[0,0.5],[1,0.5]];portConstraint=eastwest;whiteSpace=wrap;html=1;" vertex="1" parent="Ki7B4nN2D2McaFp0f1-1-9">
          <mxGeometry y="120" width="160" height="30" as="geometry" />
        </mxCell>
        <mxCell id="Ki7B4nN2D2McaFp0f1-1-13" value="Procurement" style="swimlane;fontStyle=1;align=center;verticalAlign=top;childLayout=stackLayout;horizontal=1;startSize=26;horizontalStack=0;resizeParent=1;resizeParentMax=0;resizeLast=0;collapsible=1;marginBottom=0;whiteSpace=wrap;html=1;" vertex="1" parent="1">
          <mxGeometry x="75" y="290" width="160" height="150" as="geometry" />
        </mxCell>
        <mxCell id="Ki7B4nN2D2McaFp0f1-1-14" value="list: clients" style="text;strokeColor=none;fillColor=none;align=left;verticalAlign=top;spacingLeft=4;spacingRight=4;overflow=hidden;rotatable=0;points=[[0,0.5],[1,0.5]];portConstraint=eastwest;whiteSpace=wrap;html=1;" vertex="1" parent="Ki7B4nN2D2McaFp0f1-1-13">
          <mxGeometry y="26" width="160" height="26" as="geometry" />
        </mxCell>
        <mxCell id="Ki7B4nN2D2McaFp0f1-1-15" value="" style="line;strokeWidth=1;fillColor=none;align=left;verticalAlign=middle;spacingTop=-1;spacingLeft=3;spacingRight=3;rotatable=0;labelPosition=right;points=[];portConstraint=eastwest;strokeColor=inherit;" vertex="1" parent="Ki7B4nN2D2McaFp0f1-1-13">
          <mxGeometry y="52" width="160" height="8" as="geometry" />
        </mxCell>
        <mxCell id="Ki7B4nN2D2McaFp0f1-1-16" value="addEquipment(equip): void" style="text;strokeColor=none;fillColor=none;align=left;verticalAlign=top;spacingLeft=4;spacingRight=4;overflow=hidden;rotatable=0;points=[[0,0.5],[1,0.5]];portConstraint=eastwest;whiteSpace=wrap;html=1;" vertex="1" parent="Ki7B4nN2D2McaFp0f1-1-13">
          <mxGeometry y="60" width="160" height="26" as="geometry" />
        </mxCell>
        <mxCell id="euuW4s3-k8BCBoj_Zb8h-6" value="modifyEquipment(equip, values): void" style="text;strokeColor=none;fillColor=none;align=left;verticalAlign=top;spacingLeft=4;spacingRight=4;overflow=hidden;rotatable=0;points=[[0,0.5],[1,0.5]];portConstraint=eastwest;whiteSpace=wrap;html=1;" vertex="1" parent="Ki7B4nN2D2McaFp0f1-1-13">
          <mxGeometry y="86" width="160" height="34" as="geometry" />
        </mxCell>
        <mxCell id="euuW4s3-k8BCBoj_Zb8h-8" value="viewEquipment(): list" style="text;strokeColor=none;fillColor=none;align=left;verticalAlign=top;spacingLeft=4;spacingRight=4;overflow=hidden;rotatable=0;points=[[0,0.5],[1,0.5]];portConstraint=eastwest;whiteSpace=wrap;html=1;" vertex="1" parent="Ki7B4nN2D2McaFp0f1-1-13">
          <mxGeometry y="120" width="160" height="30" as="geometry" />
        </mxCell>
        <mxCell id="Ki7B4nN2D2McaFp0f1-1-17" value="System Admin" style="swimlane;fontStyle=1;align=center;verticalAlign=top;childLayout=stackLayout;horizontal=1;startSize=26;horizontalStack=0;resizeParent=1;resizeParentMax=0;resizeLast=0;collapsible=1;marginBottom=0;whiteSpace=wrap;html=1;" vertex="1" parent="1">
          <mxGeometry x="265" y="290" width="160" height="180" as="geometry" />
        </mxCell>
        <mxCell id="Ki7B4nN2D2McaFp0f1-1-18" value="string: access" style="text;strokeColor=none;fillColor=none;align=left;verticalAlign=top;spacingLeft=4;spacingRight=4;overflow=hidden;rotatable=0;points=[[0,0.5],[1,0.5]];portConstraint=eastwest;whiteSpace=wrap;html=1;" vertex="1" parent="Ki7B4nN2D2McaFp0f1-1-17">
          <mxGeometry y="26" width="160" height="26" as="geometry" />
        </mxCell>
        <mxCell id="Ki7B4nN2D2McaFp0f1-1-19" value="" style="line;strokeWidth=1;fillColor=none;align=left;verticalAlign=middle;spacingTop=-1;spacingLeft=3;spacingRight=3;rotatable=0;labelPosition=right;points=[];portConstraint=eastwest;strokeColor=inherit;" vertex="1" parent="Ki7B4nN2D2McaFp0f1-1-17">
          <mxGeometry y="52" width="160" height="8" as="geometry" />
        </mxCell>
        <mxCell id="Ki7B4nN2D2McaFp0f1-1-20" value="addEquipment(equip): void" style="text;strokeColor=none;fillColor=none;align=left;verticalAlign=top;spacingLeft=4;spacingRight=4;overflow=hidden;rotatable=0;points=[[0,0.5],[1,0.5]];portConstraint=eastwest;whiteSpace=wrap;html=1;" vertex="1" parent="Ki7B4nN2D2McaFp0f1-1-17">
          <mxGeometry y="60" width="160" height="26" as="geometry" />
        </mxCell>
        <mxCell id="euuW4s3-k8BCBoj_Zb8h-10" value="modifyEquipmet(equip, values): void" style="text;strokeColor=none;fillColor=none;align=left;verticalAlign=top;spacingLeft=4;spacingRight=4;overflow=hidden;rotatable=0;points=[[0,0.5],[1,0.5]];portConstraint=eastwest;whiteSpace=wrap;html=1;" vertex="1" parent="Ki7B4nN2D2McaFp0f1-1-17">
          <mxGeometry y="86" width="160" height="34" as="geometry" />
        </mxCell>
        <mxCell id="euuW4s3-k8BCBoj_Zb8h-11" value="viewEquipment(): list" style="text;strokeColor=none;fillColor=none;align=left;verticalAlign=top;spacingLeft=4;spacingRight=4;overflow=hidden;rotatable=0;points=[[0,0.5],[1,0.5]];portConstraint=eastwest;whiteSpace=wrap;html=1;" vertex="1" parent="Ki7B4nN2D2McaFp0f1-1-17">
          <mxGeometry y="120" width="160" height="20" as="geometry" />
        </mxCell>
        <mxCell id="euuW4s3-k8BCBoj_Zb8h-12" value="removeEquipment(equip): void" style="text;strokeColor=none;fillColor=none;align=left;verticalAlign=top;spacingLeft=4;spacingRight=4;overflow=hidden;rotatable=0;points=[[0,0.5],[1,0.5]];portConstraint=eastwest;whiteSpace=wrap;html=1;" vertex="1" parent="Ki7B4nN2D2McaFp0f1-1-17">
          <mxGeometry y="140" width="160" height="40" as="geometry" />
        </mxCell>
        <mxCell id="smp_7MR_59mp81UZ5VPt-1" value="Equipment" style="swimlane;fontStyle=1;align=center;verticalAlign=top;childLayout=stackLayout;horizontal=1;startSize=26;horizontalStack=0;resizeParent=1;resizeParentMax=0;resizeLast=0;collapsible=1;marginBottom=0;whiteSpace=wrap;html=1;" vertex="1" parent="1">
          <mxGeometry x="250" y="573" width="160" height="242" as="geometry" />
        </mxCell>
        <mxCell id="j4FijdQB9PlOu4BfjfAQ-6" value="public string: name" style="text;strokeColor=none;fillColor=none;align=left;verticalAlign=top;spacingLeft=4;spacingRight=4;overflow=hidden;rotatable=0;points=[[0,0.5],[1,0.5]];portConstraint=eastwest;whiteSpace=wrap;html=1;" vertex="1" parent="smp_7MR_59mp81UZ5VPt-1">
          <mxGeometry y="26" width="160" height="26" as="geometry" />
        </mxCell>
        <mxCell id="j4FijdQB9PlOu4BfjfAQ-5" value="public int: ID" style="text;strokeColor=none;fillColor=none;align=left;verticalAlign=top;spacingLeft=4;spacingRight=4;overflow=hidden;rotatable=0;points=[[0,0.5],[1,0.5]];portConstraint=eastwest;whiteSpace=wrap;html=1;" vertex="1" parent="smp_7MR_59mp81UZ5VPt-1">
          <mxGeometry y="52" width="160" height="26" as="geometry" />
        </mxCell>
        <mxCell id="j4FijdQB9PlOu4BfjfAQ-4" value="public string: description" style="text;strokeColor=none;fillColor=none;align=left;verticalAlign=top;spacingLeft=4;spacingRight=4;overflow=hidden;rotatable=0;points=[[0,0.5],[1,0.5]];portConstraint=eastwest;whiteSpace=wrap;html=1;" vertex="1" parent="smp_7MR_59mp81UZ5VPt-1">
          <mxGeometry y="78" width="160" height="26" as="geometry" />
        </mxCell>
        <mxCell id="j4FijdQB9PlOu4BfjfAQ-3" value="public bmp: image" style="text;strokeColor=none;fillColor=none;align=left;verticalAlign=top;spacingLeft=4;spacingRight=4;overflow=hidden;rotatable=0;points=[[0,0.5],[1,0.5]];portConstraint=eastwest;whiteSpace=wrap;html=1;" vertex="1" parent="smp_7MR_59mp81UZ5VPt-1">
          <mxGeometry y="104" width="160" height="26" as="geometry" />
        </mxCell>
        <mxCell id="j4FijdQB9PlOu4BfjfAQ-2" value="public string: status" style="text;strokeColor=none;fillColor=none;align=left;verticalAlign=top;spacingLeft=4;spacingRight=4;overflow=hidden;rotatable=0;points=[[0,0.5],[1,0.5]];portConstraint=eastwest;whiteSpace=wrap;html=1;" vertex="1" parent="smp_7MR_59mp81UZ5VPt-1">
          <mxGeometry y="130" width="160" height="26" as="geometry" />
        </mxCell>
        <mxCell id="j4FijdQB9PlOu4BfjfAQ-1" value="public daae: nextCal" style="text;strokeColor=none;fillColor=none;align=left;verticalAlign=top;spacingLeft=4;spacingRight=4;overflow=hidden;rotatable=0;points=[[0,0.5],[1,0.5]];portConstraint=eastwest;whiteSpace=wrap;html=1;" vertex="1" parent="smp_7MR_59mp81UZ5VPt-1">
          <mxGeometry y="156" width="160" height="26" as="geometry" />
        </mxCell>
        <mxCell id="smp_7MR_59mp81UZ5VPt-2" value="public qr: qrCode" style="text;strokeColor=none;fillColor=none;align=left;verticalAlign=top;spacingLeft=4;spacingRight=4;overflow=hidden;rotatable=0;points=[[0,0.5],[1,0.5]];portConstraint=eastwest;whiteSpace=wrap;html=1;" vertex="1" parent="smp_7MR_59mp81UZ5VPt-1">
          <mxGeometry y="182" width="160" height="26" as="geometry" />
        </mxCell>
        <mxCell id="smp_7MR_59mp81UZ5VPt-3" value="" style="line;strokeWidth=1;fillColor=none;align=left;verticalAlign=middle;spacingTop=-1;spacingLeft=3;spacingRight=3;rotatable=0;labelPosition=right;points=[];portConstraint=eastwest;strokeColor=inherit;" vertex="1" parent="smp_7MR_59mp81UZ5VPt-1">
          <mxGeometry y="208" width="160" height="8" as="geometry" />
        </mxCell>
        <mxCell id="smp_7MR_59mp81UZ5VPt-4" value="updateHistory(use): void" style="text;strokeColor=none;fillColor=none;align=left;verticalAlign=top;spacingLeft=4;spacingRight=4;overflow=hidden;rotatable=0;points=[[0,0.5],[1,0.5]];portConstraint=eastwest;whiteSpace=wrap;html=1;" vertex="1" parent="smp_7MR_59mp81UZ5VPt-1">
          <mxGeometry y="216" width="160" height="26" as="geometry" />
        </mxCell>
        <mxCell id="Fdo3-6Dcw71vjPuEaioU-5" value="&amp;lt;&amp;lt;External Database&amp;gt;&amp;gt;&lt;br&gt;Equipment Database" style="shape=folder;fontStyle=1;spacingTop=10;tabWidth=40;tabHeight=14;tabPosition=left;html=1;whiteSpace=wrap;" vertex="1" parent="1">
          <mxGeometry x="10" y="573" width="150" height="80" as="geometry" />
        </mxCell>
        <mxCell id="3UkfP6382Q6qgZ7vfGkh-1" value="" style="endArrow=none;html=1;rounded=0;exitX=0.5;exitY=0;exitDx=0;exitDy=0;" edge="1" parent="1" source="Ki7B4nN2D2McaFp0f1-1-1">
          <mxGeometry width="50" height="50" relative="1" as="geometry">
            <mxPoint x="-355.5" y="300" as="sourcePoint" />
            <mxPoint x="-415" y="270" as="targetPoint" />
          </mxGeometry>
        </mxCell>
        <mxCell id="3UkfP6382Q6qgZ7vfGkh-2" value="" style="endArrow=none;html=1;rounded=0;exitX=0.5;exitY=0;exitDx=0;exitDy=0;" edge="1" parent="1" source="Ki7B4nN2D2McaFp0f1-1-5">
          <mxGeometry width="50" height="50" relative="1" as="geometry">
            <mxPoint x="-195.5" y="300" as="sourcePoint" />
            <mxPoint x="-225" y="270" as="targetPoint" />
          </mxGeometry>
        </mxCell>
        <mxCell id="3UkfP6382Q6qgZ7vfGkh-3" value="" style="endArrow=none;html=1;rounded=0;exitX=0.5;exitY=0;exitDx=0;exitDy=0;" edge="1" parent="1" source="Ki7B4nN2D2McaFp0f1-1-9">
          <mxGeometry width="50" height="50" relative="1" as="geometry">
            <mxPoint x="-35.5" y="300" as="sourcePoint" />
            <mxPoint x="-35" y="270" as="targetPoint" />
          </mxGeometry>
        </mxCell>
        <mxCell id="3UkfP6382Q6qgZ7vfGkh-4" value="" style="endArrow=none;html=1;rounded=0;exitX=0.5;exitY=0;exitDx=0;exitDy=0;" edge="1" parent="1" source="Ki7B4nN2D2McaFp0f1-1-13">
          <mxGeometry width="50" height="50" relative="1" as="geometry">
            <mxPoint x="124.5" y="300" as="sourcePoint" />
            <mxPoint x="155" y="270" as="targetPoint" />
          </mxGeometry>
        </mxCell>
        <mxCell id="3UkfP6382Q6qgZ7vfGkh-5" value="" style="endArrow=none;html=1;rounded=0;exitX=0.5;exitY=0;exitDx=0;exitDy=0;" edge="1" parent="1" source="Ki7B4nN2D2McaFp0f1-1-17">
          <mxGeometry width="50" height="50" relative="1" as="geometry">
            <mxPoint x="284.5" y="300" as="sourcePoint" />
            <mxPoint x="345" y="270" as="targetPoint" />
          </mxGeometry>
        </mxCell>
        <mxCell id="3UkfP6382Q6qgZ7vfGkh-6" value="" style="endArrow=none;html=1;rounded=0;" edge="1" parent="1">
          <mxGeometry width="50" height="50" relative="1" as="geometry">
            <mxPoint x="-415" y="270" as="sourcePoint" />
            <mxPoint x="345" y="270" as="targetPoint" />
          </mxGeometry>
        </mxCell>
        <mxCell id="3UkfP6382Q6qgZ7vfGkh-7" value="Extends" style="endArrow=block;endSize=16;endFill=0;html=1;rounded=0;" edge="1" parent="1" target="IqlPtiEgNHoKhon_FXiU-1">
          <mxGeometry x="-0.3333" y="-30" width="160" relative="1" as="geometry">
            <mxPoint x="-35" y="270" as="sourcePoint" />
            <mxPoint x="-35.5" y="240" as="targetPoint" />
            <mxPoint as="offset" />
          </mxGeometry>
        </mxCell>
        <mxCell id="j4FijdQB9PlOu4BfjfAQ-7" value="Schedule" style="swimlane;fontStyle=1;align=center;verticalAlign=top;childLayout=stackLayout;horizontal=1;startSize=26;horizontalStack=0;resizeParent=1;resizeParentMax=0;resizeLast=0;collapsible=1;marginBottom=0;whiteSpace=wrap;html=1;" vertex="1" parent="1">
          <mxGeometry x="-240" y="544" width="160" height="86" as="geometry" />
        </mxCell>
        <mxCell id="j4FijdQB9PlOu4BfjfAQ-8" value="public list: schedule" style="text;strokeColor=none;fillColor=none;align=left;verticalAlign=top;spacingLeft=4;spacingRight=4;overflow=hidden;rotatable=0;points=[[0,0.5],[1,0.5]];portConstraint=eastwest;whiteSpace=wrap;html=1;" vertex="1" parent="j4FijdQB9PlOu4BfjfAQ-7">
          <mxGeometry y="26" width="160" height="26" as="geometry" />
        </mxCell>
        <mxCell id="j4FijdQB9PlOu4BfjfAQ-9" value="" style="line;strokeWidth=1;fillColor=none;align=left;verticalAlign=middle;spacingTop=-1;spacingLeft=3;spacingRight=3;rotatable=0;labelPosition=right;points=[];portConstraint=eastwest;strokeColor=inherit;" vertex="1" parent="j4FijdQB9PlOu4BfjfAQ-7">
          <mxGeometry y="52" width="160" height="8" as="geometry" />
        </mxCell>
        <mxCell id="j4FijdQB9PlOu4BfjfAQ-10" value="+ method(type): type" style="text;strokeColor=none;fillColor=none;align=left;verticalAlign=top;spacingLeft=4;spacingRight=4;overflow=hidden;rotatable=0;points=[[0,0.5],[1,0.5]];portConstraint=eastwest;whiteSpace=wrap;html=1;" vertex="1" parent="j4FijdQB9PlOu4BfjfAQ-7">
          <mxGeometry y="60" width="160" height="26" as="geometry" />
        </mxCell>
        <mxCell id="JO32_cWz6s4DGVlU1VOE-1" value="Scheduler" style="swimlane;fontStyle=1;align=center;verticalAlign=top;childLayout=stackLayout;horizontal=1;startSize=26;horizontalStack=0;resizeParent=1;resizeParentMax=0;resizeLast=0;collapsible=1;marginBottom=0;whiteSpace=wrap;html=1;" vertex="1" parent="1">
          <mxGeometry x="-495" y="703" width="160" height="112" as="geometry" />
        </mxCell>
        <mxCell id="W0rcwoYJ_M5MMIT7l6Fi-1" value="public list: requests" style="text;strokeColor=none;fillColor=none;align=left;verticalAlign=top;spacingLeft=4;spacingRight=4;overflow=hidden;rotatable=0;points=[[0,0.5],[1,0.5]];portConstraint=eastwest;whiteSpace=wrap;html=1;" vertex="1" parent="JO32_cWz6s4DGVlU1VOE-1">
          <mxGeometry y="26" width="160" height="26" as="geometry" />
        </mxCell>
        <mxCell id="JO32_cWz6s4DGVlU1VOE-2" value="public list: schedule" style="text;strokeColor=none;fillColor=none;align=left;verticalAlign=top;spacingLeft=4;spacingRight=4;overflow=hidden;rotatable=0;points=[[0,0.5],[1,0.5]];portConstraint=eastwest;whiteSpace=wrap;html=1;" vertex="1" parent="JO32_cWz6s4DGVlU1VOE-1">
          <mxGeometry y="52" width="160" height="26" as="geometry" />
        </mxCell>
        <mxCell id="JO32_cWz6s4DGVlU1VOE-3" value="" style="line;strokeWidth=1;fillColor=none;align=left;verticalAlign=middle;spacingTop=-1;spacingLeft=3;spacingRight=3;rotatable=0;labelPosition=right;points=[];portConstraint=eastwest;strokeColor=inherit;" vertex="1" parent="JO32_cWz6s4DGVlU1VOE-1">
          <mxGeometry y="78" width="160" height="8" as="geometry" />
        </mxCell>
        <mxCell id="JO32_cWz6s4DGVlU1VOE-4" value="+ method(type): type" style="text;strokeColor=none;fillColor=none;align=left;verticalAlign=top;spacingLeft=4;spacingRight=4;overflow=hidden;rotatable=0;points=[[0,0.5],[1,0.5]];portConstraint=eastwest;whiteSpace=wrap;html=1;" vertex="1" parent="JO32_cWz6s4DGVlU1VOE-1">
          <mxGeometry y="86" width="160" height="26" as="geometry" />
        </mxCell>
        <mxCell id="8CcZaSlSnxfosce4lqmc-1" value="Equipment History" style="swimlane;fontStyle=0;childLayout=stackLayout;horizontal=1;startSize=26;fillColor=none;horizontalStack=0;resizeParent=1;resizeParentMax=0;resizeLast=0;collapsible=1;marginBottom=0;whiteSpace=wrap;html=1;" vertex="1" parent="1">
          <mxGeometry x="260" y="864.88" width="140" height="104" as="geometry" />
        </mxCell>
        <mxCell id="8CcZaSlSnxfosce4lqmc-2" value="list: checkout history" style="text;strokeColor=none;fillColor=none;align=left;verticalAlign=top;spacingLeft=4;spacingRight=4;overflow=hidden;rotatable=0;points=[[0,0.5],[1,0.5]];portConstraint=eastwest;whiteSpace=wrap;html=1;" vertex="1" parent="8CcZaSlSnxfosce4lqmc-1">
          <mxGeometry y="26" width="140" height="26" as="geometry" />
        </mxCell>
        <mxCell id="8CcZaSlSnxfosce4lqmc-3" value="list: calibration history" style="text;strokeColor=none;fillColor=none;align=left;verticalAlign=top;spacingLeft=4;spacingRight=4;overflow=hidden;rotatable=0;points=[[0,0.5],[1,0.5]];portConstraint=eastwest;whiteSpace=wrap;html=1;" vertex="1" parent="8CcZaSlSnxfosce4lqmc-1">
          <mxGeometry y="52" width="140" height="26" as="geometry" />
        </mxCell>
        <mxCell id="8CcZaSlSnxfosce4lqmc-4" value="list: repair history" style="text;strokeColor=none;fillColor=none;align=left;verticalAlign=top;spacingLeft=4;spacingRight=4;overflow=hidden;rotatable=0;points=[[0,0.5],[1,0.5]];portConstraint=eastwest;whiteSpace=wrap;html=1;" vertex="1" parent="8CcZaSlSnxfosce4lqmc-1">
          <mxGeometry y="78" width="140" height="26" as="geometry" />
        </mxCell>
        <mxCell id="8CcZaSlSnxfosce4lqmc-9" value="Request" style="swimlane;fontStyle=1;align=center;verticalAlign=top;childLayout=stackLayout;horizontal=1;startSize=26;horizontalStack=0;resizeParent=1;resizeParentMax=0;resizeLast=0;collapsible=1;marginBottom=0;whiteSpace=wrap;html=1;" vertex="1" parent="1">
          <mxGeometry x="-495" y="544" width="160" height="86" as="geometry" />
        </mxCell>
        <mxCell id="8CcZaSlSnxfosce4lqmc-10" value="public string: equip" style="text;strokeColor=none;fillColor=none;align=left;verticalAlign=top;spacingLeft=4;spacingRight=4;overflow=hidden;rotatable=0;points=[[0,0.5],[1,0.5]];portConstraint=eastwest;whiteSpace=wrap;html=1;" vertex="1" parent="8CcZaSlSnxfosce4lqmc-9">
          <mxGeometry y="26" width="160" height="26" as="geometry" />
        </mxCell>
        <mxCell id="8CcZaSlSnxfosce4lqmc-11" value="public date: date" style="text;strokeColor=none;fillColor=none;align=left;verticalAlign=top;spacingLeft=4;spacingRight=4;overflow=hidden;rotatable=0;points=[[0,0.5],[1,0.5]];portConstraint=eastwest;whiteSpace=wrap;html=1;" vertex="1" parent="8CcZaSlSnxfosce4lqmc-9">
          <mxGeometry y="52" width="160" height="26" as="geometry" />
        </mxCell>
        <mxCell id="8CcZaSlSnxfosce4lqmc-12" value="" style="line;strokeWidth=1;fillColor=none;align=left;verticalAlign=middle;spacingTop=-1;spacingLeft=3;spacingRight=3;rotatable=0;labelPosition=right;points=[];portConstraint=eastwest;strokeColor=inherit;" vertex="1" parent="8CcZaSlSnxfosce4lqmc-9">
          <mxGeometry y="78" width="160" height="8" as="geometry" />
        </mxCell>
        <mxCell id="8CcZaSlSnxfosce4lqmc-15" value="" style="endArrow=open;endFill=1;endSize=12;html=1;rounded=0;" edge="1" parent="1" source="Ki7B4nN2D2McaFp0f1-1-1" target="8CcZaSlSnxfosce4lqmc-9">
          <mxGeometry width="160" relative="1" as="geometry">
            <mxPoint x="-805" y="389.5" as="sourcePoint" />
            <mxPoint x="-645" y="389.5" as="targetPoint" />
          </mxGeometry>
        </mxCell>
        <mxCell id="8CcZaSlSnxfosce4lqmc-16" value="creates" style="edgeLabel;html=1;align=center;verticalAlign=middle;resizable=0;points=[];" vertex="1" connectable="0" parent="8CcZaSlSnxfosce4lqmc-15">
          <mxGeometry x="-0.0962" y="1" relative="1" as="geometry">
            <mxPoint as="offset" />
          </mxGeometry>
        </mxCell>
        <mxCell id="8CcZaSlSnxfosce4lqmc-17" value="" style="endArrow=open;endFill=1;endSize=12;html=1;rounded=0;" edge="1" parent="1" source="Ki7B4nN2D2McaFp0f1-1-5" target="8CcZaSlSnxfosce4lqmc-9">
          <mxGeometry width="160" relative="1" as="geometry">
            <mxPoint x="-805" y="389.5" as="sourcePoint" />
            <mxPoint x="-645" y="389.5" as="targetPoint" />
          </mxGeometry>
        </mxCell>
        <mxCell id="8CcZaSlSnxfosce4lqmc-18" value="creates" style="edgeLabel;html=1;align=center;verticalAlign=middle;resizable=0;points=[];" vertex="1" connectable="0" parent="8CcZaSlSnxfosce4lqmc-17">
          <mxGeometry x="-0.1952" y="-1" relative="1" as="geometry">
            <mxPoint as="offset" />
          </mxGeometry>
        </mxCell>
        <mxCell id="8CcZaSlSnxfosce4lqmc-19" value="" style="endArrow=open;endFill=1;endSize=12;html=1;rounded=0;" edge="1" parent="1" source="JO32_cWz6s4DGVlU1VOE-1" target="8CcZaSlSnxfosce4lqmc-9">
          <mxGeometry width="160" relative="1" as="geometry">
            <mxPoint x="-805" y="389.5" as="sourcePoint" />
            <mxPoint x="-645" y="389.5" as="targetPoint" />
          </mxGeometry>
        </mxCell>
        <mxCell id="8CcZaSlSnxfosce4lqmc-20" value="contains" style="edgeLabel;html=1;align=center;verticalAlign=middle;resizable=0;points=[];" vertex="1" connectable="0" parent="8CcZaSlSnxfosce4lqmc-19">
          <mxGeometry x="0.0685" relative="1" as="geometry">
            <mxPoint as="offset" />
          </mxGeometry>
        </mxCell>
        <mxCell id="8CcZaSlSnxfosce4lqmc-21" value="" style="endArrow=open;endFill=1;endSize=12;html=1;rounded=0;" edge="1" parent="1" source="JO32_cWz6s4DGVlU1VOE-1" target="j4FijdQB9PlOu4BfjfAQ-7">
          <mxGeometry width="160" relative="1" as="geometry">
            <mxPoint x="-805" y="389.5" as="sourcePoint" />
            <mxPoint x="-645" y="389.5" as="targetPoint" />
          </mxGeometry>
        </mxCell>
        <mxCell id="8CcZaSlSnxfosce4lqmc-22" value="updates" style="edgeLabel;html=1;align=center;verticalAlign=middle;resizable=0;points=[];" vertex="1" connectable="0" parent="8CcZaSlSnxfosce4lqmc-21">
          <mxGeometry x="-0.0321" y="3" relative="1" as="geometry">
            <mxPoint as="offset" />
          </mxGeometry>
        </mxCell>
        <mxCell id="8CcZaSlSnxfosce4lqmc-23" value="" style="endArrow=open;endFill=1;endSize=12;html=1;rounded=0;" edge="1" parent="1" source="Fdo3-6Dcw71vjPuEaioU-5" target="smp_7MR_59mp81UZ5VPt-1">
          <mxGeometry width="160" relative="1" as="geometry">
            <mxPoint x="-805" y="389.5" as="sourcePoint" />
            <mxPoint x="-645" y="389.5" as="targetPoint" />
          </mxGeometry>
        </mxCell>
        <mxCell id="8CcZaSlSnxfosce4lqmc-24" value="contains" style="edgeLabel;html=1;align=center;verticalAlign=middle;resizable=0;points=[];" vertex="1" connectable="0" parent="8CcZaSlSnxfosce4lqmc-23">
          <mxGeometry x="-0.2381" y="-1" relative="1" as="geometry">
            <mxPoint as="offset" />
          </mxGeometry>
        </mxCell>
        <mxCell id="8CcZaSlSnxfosce4lqmc-25" value="" style="endArrow=open;endFill=1;endSize=12;html=1;rounded=0;" edge="1" parent="1" source="smp_7MR_59mp81UZ5VPt-1" target="8CcZaSlSnxfosce4lqmc-1">
          <mxGeometry width="160" relative="1" as="geometry">
            <mxPoint x="-805" y="389.5" as="sourcePoint" />
            <mxPoint x="-645" y="389.5" as="targetPoint" />
          </mxGeometry>
        </mxCell>
        <mxCell id="8CcZaSlSnxfosce4lqmc-26" value="has" style="edgeLabel;html=1;align=center;verticalAlign=middle;resizable=0;points=[];" vertex="1" connectable="0" parent="8CcZaSlSnxfosce4lqmc-25">
          <mxGeometry x="0.0425" y="-1" relative="1" as="geometry">
            <mxPoint as="offset" />
          </mxGeometry>
        </mxCell>
        <mxCell id="8CcZaSlSnxfosce4lqmc-27" value="" style="endArrow=open;endFill=1;endSize=12;html=1;rounded=0;" edge="1" parent="1" source="Ki7B4nN2D2McaFp0f1-1-9" target="smp_7MR_59mp81UZ5VPt-1">
          <mxGeometry width="160" relative="1" as="geometry">
            <mxPoint x="-805" y="389.5" as="sourcePoint" />
            <mxPoint x="-645" y="389.5" as="targetPoint" />
          </mxGeometry>
        </mxCell>
        <mxCell id="8CcZaSlSnxfosce4lqmc-28" value="creates" style="edgeLabel;html=1;align=center;verticalAlign=middle;resizable=0;points=[];" vertex="1" connectable="0" parent="8CcZaSlSnxfosce4lqmc-27">
          <mxGeometry x="-0.0773" y="-1" relative="1" as="geometry">
            <mxPoint as="offset" />
          </mxGeometry>
        </mxCell>
        <mxCell id="8CcZaSlSnxfosce4lqmc-29" value="" style="endArrow=open;endFill=1;endSize=12;html=1;rounded=0;" edge="1" parent="1" source="Ki7B4nN2D2McaFp0f1-1-13" target="smp_7MR_59mp81UZ5VPt-1">
          <mxGeometry width="160" relative="1" as="geometry">
            <mxPoint x="-805" y="389.5" as="sourcePoint" />
            <mxPoint x="-645" y="389.5" as="targetPoint" />
          </mxGeometry>
        </mxCell>
        <mxCell id="8CcZaSlSnxfosce4lqmc-30" value="creates" style="edgeLabel;html=1;align=center;verticalAlign=middle;resizable=0;points=[];" vertex="1" connectable="0" parent="8CcZaSlSnxfosce4lqmc-29">
          <mxGeometry x="-0.0372" relative="1" as="geometry">
            <mxPoint as="offset" />
          </mxGeometry>
        </mxCell>
        <mxCell id="8CcZaSlSnxfosce4lqmc-32" value="" style="endArrow=open;endFill=1;endSize=12;html=1;rounded=0;" edge="1" parent="1" source="Ki7B4nN2D2McaFp0f1-1-17" target="smp_7MR_59mp81UZ5VPt-1">
          <mxGeometry width="160" relative="1" as="geometry">
            <mxPoint x="-805" y="389.5" as="sourcePoint" />
            <mxPoint x="-645" y="389.5" as="targetPoint" />
          </mxGeometry>
        </mxCell>
        <mxCell id="8CcZaSlSnxfosce4lqmc-33" value="creates" style="edgeLabel;html=1;align=center;verticalAlign=middle;resizable=0;points=[];" vertex="1" connectable="0" parent="8CcZaSlSnxfosce4lqmc-32">
          <mxGeometry x="0.009" y="1" relative="1" as="geometry">
            <mxPoint as="offset" />
          </mxGeometry>
        </mxCell>
        <mxCell id="8CcZaSlSnxfosce4lqmc-34" value="" style="endArrow=open;endFill=1;endSize=12;html=1;rounded=0;" edge="1" parent="1" source="j4FijdQB9PlOu4BfjfAQ-7" target="Fdo3-6Dcw71vjPuEaioU-5">
          <mxGeometry width="160" relative="1" as="geometry">
            <mxPoint x="-805" y="389.5" as="sourcePoint" />
            <mxPoint x="-645" y="389.5" as="targetPoint" />
          </mxGeometry>
        </mxCell>
        <mxCell id="8CcZaSlSnxfosce4lqmc-35" value="updates" style="edgeLabel;html=1;align=center;verticalAlign=middle;resizable=0;points=[];" vertex="1" connectable="0" parent="8CcZaSlSnxfosce4lqmc-34">
          <mxGeometry x="-0.2493" y="2" relative="1" as="geometry">
            <mxPoint as="offset" />
          </mxGeometry>
        </mxCell>
      </root>
    </mxGraphModel>
  </diagram>
  <diagram id="6j9i7Q3xS_OTF9gJ1dXw" name="Sequence Diagram">
    <mxGraphModel dx="1154" dy="582" grid="1" gridSize="10" guides="1" tooltips="1" connect="1" arrows="1" fold="1" page="1" pageScale="1" pageWidth="850" pageHeight="1100" math="0" shadow="0">
      <root>
        <mxCell id="0" />
        <mxCell id="1" parent="0" />
        <mxCell id="3hhzGDQre7lonxC6c1LO-1" value=":Procurement" style="shape=umlLifeline;perimeter=lifelinePerimeter;whiteSpace=wrap;html=1;container=1;dropTarget=0;collapsible=0;recursiveResize=0;outlineConnect=0;portConstraint=eastwest;newEdgeStyle={&quot;curved&quot;:0,&quot;rounded&quot;:0};" vertex="1" parent="1">
          <mxGeometry x="70" y="100" width="100" height="200" as="geometry" />
        </mxCell>
        <mxCell id="wldID-c6YEdMPAOiDbvf-5" value="" style="html=1;points=[[0,0,0,0,5],[0,1,0,0,-5],[1,0,0,0,5],[1,1,0,0,-5]];perimeter=orthogonalPerimeter;outlineConnect=0;targetShapes=umlLifeline;portConstraint=eastwest;newEdgeStyle={&quot;curved&quot;:0,&quot;rounded&quot;:0};" vertex="1" parent="3hhzGDQre7lonxC6c1LO-1">
          <mxGeometry x="45" y="100" width="10" height="80" as="geometry" />
        </mxCell>
        <mxCell id="iE8G5bdaQr60pYOn7EPC-1" value=":System" style="shape=umlLifeline;perimeter=lifelinePerimeter;whiteSpace=wrap;html=1;container=1;dropTarget=0;collapsible=0;recursiveResize=0;outlineConnect=0;portConstraint=eastwest;newEdgeStyle={&quot;curved&quot;:0,&quot;rounded&quot;:0};" vertex="1" parent="1">
          <mxGeometry x="240" y="100" width="100" height="200" as="geometry" />
        </mxCell>
        <mxCell id="iE8G5bdaQr60pYOn7EPC-3" value="" style="html=1;points=[[0,0,0,0,5],[0,1,0,0,-5],[1,0,0,0,5],[1,1,0,0,-5]];perimeter=orthogonalPerimeter;outlineConnect=0;targetShapes=umlLifeline;portConstraint=eastwest;newEdgeStyle={&quot;curved&quot;:0,&quot;rounded&quot;:0};" vertex="1" parent="iE8G5bdaQr60pYOn7EPC-1">
          <mxGeometry x="45" y="110" width="10" height="60" as="geometry" />
        </mxCell>
        <mxCell id="iE8G5bdaQr60pYOn7EPC-2" value=":Database" style="shape=umlLifeline;perimeter=lifelinePerimeter;whiteSpace=wrap;html=1;container=1;dropTarget=0;collapsible=0;recursiveResize=0;outlineConnect=0;portConstraint=eastwest;newEdgeStyle={&quot;curved&quot;:0,&quot;rounded&quot;:0};" vertex="1" parent="1">
          <mxGeometry x="410" y="100" width="100" height="200" as="geometry" />
        </mxCell>
        <mxCell id="wldID-c6YEdMPAOiDbvf-2" value="" style="html=1;points=[[0,0,0,0,5],[0,1,0,0,-5],[1,0,0,0,5],[1,1,0,0,-5]];perimeter=orthogonalPerimeter;outlineConnect=0;targetShapes=umlLifeline;portConstraint=eastwest;newEdgeStyle={&quot;curved&quot;:0,&quot;rounded&quot;:0};" vertex="1" parent="iE8G5bdaQr60pYOn7EPC-2">
          <mxGeometry x="45" y="120" width="10" height="40" as="geometry" />
        </mxCell>
        <mxCell id="iE8G5bdaQr60pYOn7EPC-4" value="addEquipment()" style="html=1;verticalAlign=bottom;endArrow=block;curved=0;rounded=0;entryX=0;entryY=0;entryDx=0;entryDy=5;" edge="1" target="iE8G5bdaQr60pYOn7EPC-3" parent="1" source="3hhzGDQre7lonxC6c1LO-1">
          <mxGeometry relative="1" as="geometry">
            <mxPoint x="210" y="215" as="sourcePoint" />
          </mxGeometry>
        </mxCell>
        <mxCell id="wldID-c6YEdMPAOiDbvf-3" value="updateDatabase()" style="html=1;verticalAlign=bottom;endArrow=block;curved=0;rounded=0;entryX=0;entryY=0;entryDx=0;entryDy=5;" edge="1" target="wldID-c6YEdMPAOiDbvf-2" parent="1" source="iE8G5bdaQr60pYOn7EPC-3">
          <mxGeometry relative="1" as="geometry">
            <mxPoint x="385" y="195" as="sourcePoint" />
          </mxGeometry>
        </mxCell>
        <mxCell id="wldID-c6YEdMPAOiDbvf-4" value="confirmation" style="html=1;verticalAlign=bottom;endArrow=open;dashed=1;endSize=8;curved=0;rounded=0;exitX=0;exitY=1;exitDx=0;exitDy=-5;" edge="1" source="wldID-c6YEdMPAOiDbvf-2" parent="1" target="iE8G5bdaQr60pYOn7EPC-3">
          <mxGeometry relative="1" as="geometry">
            <mxPoint x="385" y="265" as="targetPoint" />
          </mxGeometry>
        </mxCell>
        <mxCell id="iE8G5bdaQr60pYOn7EPC-5" value="confirmation" style="html=1;verticalAlign=bottom;endArrow=open;dashed=1;endSize=8;curved=0;rounded=0;exitX=0;exitY=1;exitDx=0;exitDy=-5;" edge="1" source="iE8G5bdaQr60pYOn7EPC-3" parent="1" target="wldID-c6YEdMPAOiDbvf-5">
          <mxGeometry relative="1" as="geometry">
            <mxPoint x="210" y="285" as="targetPoint" />
          </mxGeometry>
        </mxCell>
        <mxCell id="wldID-c6YEdMPAOiDbvf-6" value=":Engineer" style="shape=umlLifeline;perimeter=lifelinePerimeter;whiteSpace=wrap;html=1;container=1;dropTarget=0;collapsible=0;recursiveResize=0;outlineConnect=0;portConstraint=eastwest;newEdgeStyle={&quot;curved&quot;:0,&quot;rounded&quot;:0};" vertex="1" parent="1">
          <mxGeometry x="70" y="330" width="100" height="200" as="geometry" />
        </mxCell>
        <mxCell id="wldID-c6YEdMPAOiDbvf-7" value="" style="html=1;points=[[0,0,0,0,5],[0,1,0,0,-5],[1,0,0,0,5],[1,1,0,0,-5]];perimeter=orthogonalPerimeter;outlineConnect=0;targetShapes=umlLifeline;portConstraint=eastwest;newEdgeStyle={&quot;curved&quot;:0,&quot;rounded&quot;:0};" vertex="1" parent="wldID-c6YEdMPAOiDbvf-6">
          <mxGeometry x="45" y="100" width="10" height="80" as="geometry" />
        </mxCell>
        <mxCell id="wldID-c6YEdMPAOiDbvf-8" value=":System" style="shape=umlLifeline;perimeter=lifelinePerimeter;whiteSpace=wrap;html=1;container=1;dropTarget=0;collapsible=0;recursiveResize=0;outlineConnect=0;portConstraint=eastwest;newEdgeStyle={&quot;curved&quot;:0,&quot;rounded&quot;:0};" vertex="1" parent="1">
          <mxGeometry x="240" y="330" width="100" height="200" as="geometry" />
        </mxCell>
        <mxCell id="wldID-c6YEdMPAOiDbvf-9" value="" style="html=1;points=[[0,0,0,0,5],[0,1,0,0,-5],[1,0,0,0,5],[1,1,0,0,-5]];perimeter=orthogonalPerimeter;outlineConnect=0;targetShapes=umlLifeline;portConstraint=eastwest;newEdgeStyle={&quot;curved&quot;:0,&quot;rounded&quot;:0};" vertex="1" parent="wldID-c6YEdMPAOiDbvf-8">
          <mxGeometry x="45" y="110" width="10" height="60" as="geometry" />
        </mxCell>
        <mxCell id="wldID-c6YEdMPAOiDbvf-10" value=":Database" style="shape=umlLifeline;perimeter=lifelinePerimeter;whiteSpace=wrap;html=1;container=1;dropTarget=0;collapsible=0;recursiveResize=0;outlineConnect=0;portConstraint=eastwest;newEdgeStyle={&quot;curved&quot;:0,&quot;rounded&quot;:0};" vertex="1" parent="1">
          <mxGeometry x="410" y="330" width="100" height="200" as="geometry" />
        </mxCell>
        <mxCell id="wldID-c6YEdMPAOiDbvf-11" value="" style="html=1;points=[[0,0,0,0,5],[0,1,0,0,-5],[1,0,0,0,5],[1,1,0,0,-5]];perimeter=orthogonalPerimeter;outlineConnect=0;targetShapes=umlLifeline;portConstraint=eastwest;newEdgeStyle={&quot;curved&quot;:0,&quot;rounded&quot;:0};" vertex="1" parent="wldID-c6YEdMPAOiDbvf-10">
          <mxGeometry x="45" y="120" width="10" height="40" as="geometry" />
        </mxCell>
        <mxCell id="wldID-c6YEdMPAOiDbvf-12" value="requestEquipment()" style="html=1;verticalAlign=bottom;endArrow=block;curved=0;rounded=0;entryX=0;entryY=0;entryDx=0;entryDy=5;" edge="1" source="wldID-c6YEdMPAOiDbvf-6" target="wldID-c6YEdMPAOiDbvf-9" parent="1">
          <mxGeometry relative="1" as="geometry">
            <mxPoint x="210" y="445" as="sourcePoint" />
          </mxGeometry>
        </mxCell>
        <mxCell id="wldID-c6YEdMPAOiDbvf-13" value="updateSchedule()" style="html=1;verticalAlign=bottom;endArrow=block;curved=0;rounded=0;entryX=0;entryY=0;entryDx=0;entryDy=5;" edge="1" source="wldID-c6YEdMPAOiDbvf-9" target="wldID-c6YEdMPAOiDbvf-11" parent="1">
          <mxGeometry relative="1" as="geometry">
            <mxPoint x="385" y="425" as="sourcePoint" />
          </mxGeometry>
        </mxCell>
        <mxCell id="wldID-c6YEdMPAOiDbvf-14" value="confirmation" style="html=1;verticalAlign=bottom;endArrow=open;dashed=1;endSize=8;curved=0;rounded=0;exitX=0;exitY=1;exitDx=0;exitDy=-5;" edge="1" source="wldID-c6YEdMPAOiDbvf-11" target="wldID-c6YEdMPAOiDbvf-9" parent="1">
          <mxGeometry relative="1" as="geometry">
            <mxPoint x="385" y="495" as="targetPoint" />
          </mxGeometry>
        </mxCell>
        <mxCell id="wldID-c6YEdMPAOiDbvf-15" value="confirmation" style="html=1;verticalAlign=bottom;endArrow=open;dashed=1;endSize=8;curved=0;rounded=0;exitX=0;exitY=1;exitDx=0;exitDy=-5;" edge="1" source="wldID-c6YEdMPAOiDbvf-9" target="wldID-c6YEdMPAOiDbvf-7" parent="1">
          <mxGeometry relative="1" as="geometry">
            <mxPoint x="210" y="515" as="targetPoint" />
          </mxGeometry>
        </mxCell>
        <mxCell id="eJFCntAuS7MJMBq-U4nr-1" value=":Manager" style="shape=umlLifeline;perimeter=lifelinePerimeter;whiteSpace=wrap;html=1;container=1;dropTarget=0;collapsible=0;recursiveResize=0;outlineConnect=0;portConstraint=eastwest;newEdgeStyle={&quot;curved&quot;:0,&quot;rounded&quot;:0};" vertex="1" parent="1">
          <mxGeometry x="70" y="560" width="100" height="200" as="geometry" />
        </mxCell>
        <mxCell id="eJFCntAuS7MJMBq-U4nr-2" value="" style="html=1;points=[[0,0,0,0,5],[0,1,0,0,-5],[1,0,0,0,5],[1,1,0,0,-5]];perimeter=orthogonalPerimeter;outlineConnect=0;targetShapes=umlLifeline;portConstraint=eastwest;newEdgeStyle={&quot;curved&quot;:0,&quot;rounded&quot;:0};" vertex="1" parent="eJFCntAuS7MJMBq-U4nr-1">
          <mxGeometry x="45" y="100" width="10" height="80" as="geometry" />
        </mxCell>
        <mxCell id="eJFCntAuS7MJMBq-U4nr-3" value=":System" style="shape=umlLifeline;perimeter=lifelinePerimeter;whiteSpace=wrap;html=1;container=1;dropTarget=0;collapsible=0;recursiveResize=0;outlineConnect=0;portConstraint=eastwest;newEdgeStyle={&quot;curved&quot;:0,&quot;rounded&quot;:0};" vertex="1" parent="1">
          <mxGeometry x="240" y="560" width="100" height="200" as="geometry" />
        </mxCell>
        <mxCell id="eJFCntAuS7MJMBq-U4nr-4" value="" style="html=1;points=[[0,0,0,0,5],[0,1,0,0,-5],[1,0,0,0,5],[1,1,0,0,-5]];perimeter=orthogonalPerimeter;outlineConnect=0;targetShapes=umlLifeline;portConstraint=eastwest;newEdgeStyle={&quot;curved&quot;:0,&quot;rounded&quot;:0};" vertex="1" parent="eJFCntAuS7MJMBq-U4nr-3">
          <mxGeometry x="45" y="110" width="10" height="60" as="geometry" />
        </mxCell>
        <mxCell id="eJFCntAuS7MJMBq-U4nr-5" value=":Database" style="shape=umlLifeline;perimeter=lifelinePerimeter;whiteSpace=wrap;html=1;container=1;dropTarget=0;collapsible=0;recursiveResize=0;outlineConnect=0;portConstraint=eastwest;newEdgeStyle={&quot;curved&quot;:0,&quot;rounded&quot;:0};" vertex="1" parent="1">
          <mxGeometry x="410" y="560" width="100" height="200" as="geometry" />
        </mxCell>
        <mxCell id="eJFCntAuS7MJMBq-U4nr-6" value="" style="html=1;points=[[0,0,0,0,5],[0,1,0,0,-5],[1,0,0,0,5],[1,1,0,0,-5]];perimeter=orthogonalPerimeter;outlineConnect=0;targetShapes=umlLifeline;portConstraint=eastwest;newEdgeStyle={&quot;curved&quot;:0,&quot;rounded&quot;:0};" vertex="1" parent="eJFCntAuS7MJMBq-U4nr-5">
          <mxGeometry x="45" y="120" width="10" height="40" as="geometry" />
        </mxCell>
        <mxCell id="eJFCntAuS7MJMBq-U4nr-7" value="viewEquipment()" style="html=1;verticalAlign=bottom;endArrow=block;curved=0;rounded=0;entryX=0;entryY=0;entryDx=0;entryDy=5;" edge="1" source="eJFCntAuS7MJMBq-U4nr-1" target="eJFCntAuS7MJMBq-U4nr-4" parent="1">
          <mxGeometry relative="1" as="geometry">
            <mxPoint x="210" y="675" as="sourcePoint" />
          </mxGeometry>
        </mxCell>
        <mxCell id="eJFCntAuS7MJMBq-U4nr-8" value="retreiveEquipment()" style="html=1;verticalAlign=bottom;endArrow=block;curved=0;rounded=0;entryX=0;entryY=0;entryDx=0;entryDy=5;" edge="1" source="eJFCntAuS7MJMBq-U4nr-4" target="eJFCntAuS7MJMBq-U4nr-6" parent="1">
          <mxGeometry relative="1" as="geometry">
            <mxPoint x="385" y="655" as="sourcePoint" />
          </mxGeometry>
        </mxCell>
        <mxCell id="eJFCntAuS7MJMBq-U4nr-9" value="equipment list" style="html=1;verticalAlign=bottom;endArrow=open;dashed=1;endSize=8;curved=0;rounded=0;exitX=0;exitY=1;exitDx=0;exitDy=-5;" edge="1" source="eJFCntAuS7MJMBq-U4nr-6" target="eJFCntAuS7MJMBq-U4nr-4" parent="1">
          <mxGeometry relative="1" as="geometry">
            <mxPoint x="385" y="725" as="targetPoint" />
          </mxGeometry>
        </mxCell>
        <mxCell id="eJFCntAuS7MJMBq-U4nr-10" value="equipment list" style="html=1;verticalAlign=bottom;endArrow=open;dashed=1;endSize=8;curved=0;rounded=0;exitX=0;exitY=1;exitDx=0;exitDy=-5;" edge="1" source="eJFCntAuS7MJMBq-U4nr-4" target="eJFCntAuS7MJMBq-U4nr-2" parent="1">
          <mxGeometry relative="1" as="geometry">
            <mxPoint x="210" y="745" as="targetPoint" />
          </mxGeometry>
        </mxCell>
      </root>
    </mxGraphModel>
  </diagram>
  <diagram id="aA35osFLS6NQzJss1h38" name="State Diagram">
    <mxGraphModel dx="1674" dy="844" grid="1" gridSize="10" guides="1" tooltips="1" connect="1" arrows="1" fold="1" page="1" pageScale="1" pageWidth="850" pageHeight="1100" math="0" shadow="0">
      <root>
        <mxCell id="0" />
        <mxCell id="1" parent="0" />
        <mxCell id="hMXeLKGfy2m-PDPalJdz-1" value="add Equipment request" style="html=1;verticalAlign=bottom;startArrow=circle;startFill=1;endArrow=open;startSize=6;endSize=8;curved=0;rounded=0;" edge="1" parent="1" target="hMXeLKGfy2m-PDPalJdz-2">
          <mxGeometry width="80" relative="1" as="geometry">
            <mxPoint x="425" y="90" as="sourcePoint" />
            <mxPoint x="425" y="140" as="targetPoint" />
          </mxGeometry>
        </mxCell>
        <mxCell id="hMXeLKGfy2m-PDPalJdz-2" value="Requested Equipment" style="rounded=1;whiteSpace=wrap;html=1;" vertex="1" parent="1">
          <mxGeometry x="365" y="150" width="120" height="40" as="geometry" />
        </mxCell>
        <mxCell id="hMXeLKGfy2m-PDPalJdz-3" value="Rejected Equipment" style="rounded=1;whiteSpace=wrap;html=1;" vertex="1" parent="1">
          <mxGeometry x="180" y="240" width="120" height="40" as="geometry" />
        </mxCell>
        <mxCell id="hMXeLKGfy2m-PDPalJdz-4" value="Accepted Equipment" style="rounded=1;whiteSpace=wrap;html=1;" vertex="1" parent="1">
          <mxGeometry x="550" y="240" width="120" height="40" as="geometry" />
        </mxCell>
        <mxCell id="hMXeLKGfy2m-PDPalJdz-7" value="" style="endArrow=classic;html=1;rounded=0;" edge="1" parent="1" source="hMXeLKGfy2m-PDPalJdz-2" target="hMXeLKGfy2m-PDPalJdz-3">
          <mxGeometry width="50" height="50" relative="1" as="geometry">
            <mxPoint x="410" y="470" as="sourcePoint" />
            <mxPoint x="460" y="420" as="targetPoint" />
          </mxGeometry>
        </mxCell>
        <mxCell id="hMXeLKGfy2m-PDPalJdz-12" value="[reject]&lt;br&gt;invalid input" style="edgeLabel;html=1;align=center;verticalAlign=middle;resizable=0;points=[];" vertex="1" connectable="0" parent="hMXeLKGfy2m-PDPalJdz-7">
          <mxGeometry x="0.0623" y="2" relative="1" as="geometry">
            <mxPoint as="offset" />
          </mxGeometry>
        </mxCell>
        <mxCell id="hMXeLKGfy2m-PDPalJdz-8" value="" style="endArrow=classic;html=1;rounded=0;" edge="1" parent="1" source="hMXeLKGfy2m-PDPalJdz-2" target="hMXeLKGfy2m-PDPalJdz-4">
          <mxGeometry width="50" height="50" relative="1" as="geometry">
            <mxPoint x="410" y="470" as="sourcePoint" />
            <mxPoint x="460" y="420" as="targetPoint" />
            <Array as="points" />
          </mxGeometry>
        </mxCell>
        <mxCell id="hMXeLKGfy2m-PDPalJdz-13" value="[accept]&lt;br&gt;valid input" style="edgeLabel;html=1;align=center;verticalAlign=middle;resizable=0;points=[];" vertex="1" connectable="0" parent="hMXeLKGfy2m-PDPalJdz-8">
          <mxGeometry x="-0.1252" relative="1" as="geometry">
            <mxPoint as="offset" />
          </mxGeometry>
        </mxCell>
        <mxCell id="hMXeLKGfy2m-PDPalJdz-14" value="Accepted received Equipment" style="rounded=1;whiteSpace=wrap;html=1;" vertex="1" parent="1">
          <mxGeometry x="670" y="320" width="120" height="40" as="geometry" />
        </mxCell>
        <mxCell id="hMXeLKGfy2m-PDPalJdz-15" value="Accepted pending Equipment" style="rounded=1;whiteSpace=wrap;html=1;" vertex="1" parent="1">
          <mxGeometry x="430" y="320" width="120" height="40" as="geometry" />
        </mxCell>
        <mxCell id="hMXeLKGfy2m-PDPalJdz-16" value="" style="endArrow=classic;html=1;rounded=0;" edge="1" parent="1" source="hMXeLKGfy2m-PDPalJdz-4" target="hMXeLKGfy2m-PDPalJdz-15">
          <mxGeometry width="50" height="50" relative="1" as="geometry">
            <mxPoint x="410" y="470" as="sourcePoint" />
            <mxPoint x="460" y="420" as="targetPoint" />
          </mxGeometry>
        </mxCell>
        <mxCell id="hMXeLKGfy2m-PDPalJdz-18" value="not received" style="edgeLabel;html=1;align=center;verticalAlign=middle;resizable=0;points=[];" vertex="1" connectable="0" parent="hMXeLKGfy2m-PDPalJdz-16">
          <mxGeometry x="0.1385" relative="1" as="geometry">
            <mxPoint as="offset" />
          </mxGeometry>
        </mxCell>
        <mxCell id="hMXeLKGfy2m-PDPalJdz-17" value="" style="endArrow=classic;html=1;rounded=0;" edge="1" parent="1" source="hMXeLKGfy2m-PDPalJdz-4" target="hMXeLKGfy2m-PDPalJdz-14">
          <mxGeometry width="50" height="50" relative="1" as="geometry">
            <mxPoint x="410" y="470" as="sourcePoint" />
            <mxPoint x="460" y="420" as="targetPoint" />
          </mxGeometry>
        </mxCell>
        <mxCell id="hMXeLKGfy2m-PDPalJdz-19" value="received" style="edgeLabel;html=1;align=center;verticalAlign=middle;resizable=0;points=[];" vertex="1" connectable="0" parent="hMXeLKGfy2m-PDPalJdz-17">
          <mxGeometry x="-0.0308" y="2" relative="1" as="geometry">
            <mxPoint as="offset" />
          </mxGeometry>
        </mxCell>
        <mxCell id="hMXeLKGfy2m-PDPalJdz-20" value="" style="endArrow=classic;html=1;rounded=0;" edge="1" parent="1" source="hMXeLKGfy2m-PDPalJdz-15" target="hMXeLKGfy2m-PDPalJdz-14">
          <mxGeometry width="50" height="50" relative="1" as="geometry">
            <mxPoint x="410" y="470" as="sourcePoint" />
            <mxPoint x="460" y="420" as="targetPoint" />
          </mxGeometry>
        </mxCell>
        <mxCell id="hMXeLKGfy2m-PDPalJdz-21" value="received" style="edgeLabel;html=1;align=center;verticalAlign=middle;resizable=0;points=[];" vertex="1" connectable="0" parent="hMXeLKGfy2m-PDPalJdz-20">
          <mxGeometry relative="1" as="geometry">
            <mxPoint as="offset" />
          </mxGeometry>
        </mxCell>
        <mxCell id="hMXeLKGfy2m-PDPalJdz-22" value="END" style="rounded=0;whiteSpace=wrap;html=1;" vertex="1" parent="1">
          <mxGeometry x="400" y="390" width="50" height="30" as="geometry" />
        </mxCell>
        <mxCell id="hMXeLKGfy2m-PDPalJdz-23" value="" style="endArrow=classic;html=1;rounded=0;" edge="1" parent="1" source="hMXeLKGfy2m-PDPalJdz-3" target="hMXeLKGfy2m-PDPalJdz-22">
          <mxGeometry width="50" height="50" relative="1" as="geometry">
            <mxPoint x="400" y="460" as="sourcePoint" />
            <mxPoint x="450" y="410" as="targetPoint" />
          </mxGeometry>
        </mxCell>
        <mxCell id="hMXeLKGfy2m-PDPalJdz-25" value="" style="endArrow=classic;html=1;rounded=0;" edge="1" parent="1" source="hMXeLKGfy2m-PDPalJdz-14" target="hMXeLKGfy2m-PDPalJdz-22">
          <mxGeometry width="50" height="50" relative="1" as="geometry">
            <mxPoint x="400" y="460" as="sourcePoint" />
            <mxPoint x="450" y="410" as="targetPoint" />
          </mxGeometry>
        </mxCell>
      </root>
    </mxGraphModel>
  </diagram>
  <diagram id="CBgE57kaLCkzJlAjWXEw" name="Activity Diagram">
    <mxGraphModel dx="1395" dy="703" grid="1" gridSize="10" guides="1" tooltips="1" connect="1" arrows="1" fold="1" page="1" pageScale="1" pageWidth="850" pageHeight="1100" math="0" shadow="0">
      <root>
        <mxCell id="0" />
        <mxCell id="1" parent="0" />
        <mxCell id="x5mroZ5SM7eKElS9qaG--1" value="Search Equipment" style="swimlane;childLayout=stackLayout;resizeParent=1;resizeParentMax=0;startSize=20;html=1;" vertex="1" parent="1">
          <mxGeometry x="80.00000000000045" y="100" width="670" height="580" as="geometry" />
        </mxCell>
        <mxCell id="x5mroZ5SM7eKElS9qaG--2" value="Manager" style="swimlane;startSize=20;html=1;" vertex="1" parent="x5mroZ5SM7eKElS9qaG--1">
          <mxGeometry y="20" width="230" height="560" as="geometry" />
        </mxCell>
        <mxCell id="x5mroZ5SM7eKElS9qaG--6" value="Search Equipment" style="rounded=1;whiteSpace=wrap;html=1;" vertex="1" parent="x5mroZ5SM7eKElS9qaG--2">
          <mxGeometry x="59.999999999999545" y="110" width="110" height="40" as="geometry" />
        </mxCell>
        <mxCell id="x5mroZ5SM7eKElS9qaG--5" value="" style="html=1;verticalAlign=bottom;startArrow=circle;startFill=1;endArrow=open;startSize=6;endSize=8;curved=0;rounded=0;" edge="1" parent="x5mroZ5SM7eKElS9qaG--2" target="x5mroZ5SM7eKElS9qaG--6">
          <mxGeometry width="80" relative="1" as="geometry">
            <mxPoint x="114.99999999999955" y="40" as="sourcePoint" />
            <mxPoint x="62.499999999999545" y="100" as="targetPoint" />
          </mxGeometry>
        </mxCell>
        <mxCell id="x5mroZ5SM7eKElS9qaG--22" value="Display info" style="rounded=1;whiteSpace=wrap;html=1;" vertex="1" parent="x5mroZ5SM7eKElS9qaG--2">
          <mxGeometry x="59.999999999999545" y="440" width="110" height="40" as="geometry" />
        </mxCell>
        <mxCell id="x5mroZ5SM7eKElS9qaG--25" value="END" style="rounded=0;whiteSpace=wrap;html=1;" vertex="1" parent="x5mroZ5SM7eKElS9qaG--2">
          <mxGeometry x="90" y="510" width="50" height="20" as="geometry" />
        </mxCell>
        <mxCell id="x5mroZ5SM7eKElS9qaG--24" value="" style="endArrow=classic;html=1;rounded=0;" edge="1" parent="x5mroZ5SM7eKElS9qaG--2" source="x5mroZ5SM7eKElS9qaG--22" target="x5mroZ5SM7eKElS9qaG--25">
          <mxGeometry width="50" height="50" relative="1" as="geometry">
            <mxPoint x="354.99999999999955" y="440" as="sourcePoint" />
            <mxPoint x="114.99999999999955" y="520" as="targetPoint" />
          </mxGeometry>
        </mxCell>
        <mxCell id="x5mroZ5SM7eKElS9qaG--3" value="System" style="swimlane;startSize=20;html=1;" vertex="1" parent="x5mroZ5SM7eKElS9qaG--1">
          <mxGeometry x="230" y="20" width="240" height="560" as="geometry" />
        </mxCell>
        <mxCell id="x5mroZ5SM7eKElS9qaG--7" value="Query Database" style="rounded=1;whiteSpace=wrap;html=1;" vertex="1" parent="x5mroZ5SM7eKElS9qaG--3">
          <mxGeometry x="64.99999999999955" y="150" width="110" height="40" as="geometry" />
        </mxCell>
        <mxCell id="x5mroZ5SM7eKElS9qaG--18" value="Equipment info" style="rounded=0;whiteSpace=wrap;html=1;" vertex="1" parent="x5mroZ5SM7eKElS9qaG--3">
          <mxGeometry x="64.99999999999955" y="400" width="110" height="40" as="geometry" />
        </mxCell>
        <mxCell id="x5mroZ5SM7eKElS9qaG--4" value="Database" style="swimlane;startSize=20;html=1;" vertex="1" parent="x5mroZ5SM7eKElS9qaG--1">
          <mxGeometry x="470" y="20" width="200" height="560" as="geometry" />
        </mxCell>
        <mxCell id="x5mroZ5SM7eKElS9qaG--10" value="Equipment" style="rounded=0;whiteSpace=wrap;html=1;" vertex="1" parent="x5mroZ5SM7eKElS9qaG--4">
          <mxGeometry x="44.999999999999545" y="190" width="110" height="40" as="geometry" />
        </mxCell>
        <mxCell id="x5mroZ5SM7eKElS9qaG--9" value="Search" style="rounded=1;whiteSpace=wrap;html=1;" vertex="1" parent="x5mroZ5SM7eKElS9qaG--4">
          <mxGeometry x="44.999999999999545" y="250" width="110" height="40" as="geometry" />
        </mxCell>
        <mxCell id="x5mroZ5SM7eKElS9qaG--11" value="Found?" style="rhombus;whiteSpace=wrap;html=1;" vertex="1" parent="x5mroZ5SM7eKElS9qaG--4">
          <mxGeometry x="59.999999999999545" y="320" width="80" height="80" as="geometry" />
        </mxCell>
        <mxCell id="x5mroZ5SM7eKElS9qaG--13" value="" style="endArrow=classic;html=1;rounded=0;" edge="1" parent="x5mroZ5SM7eKElS9qaG--4" source="x5mroZ5SM7eKElS9qaG--10" target="x5mroZ5SM7eKElS9qaG--9">
          <mxGeometry width="50" height="50" relative="1" as="geometry">
            <mxPoint x="64.99999999999955" y="300" as="sourcePoint" />
            <mxPoint x="114.99999999999955" y="250" as="targetPoint" />
          </mxGeometry>
        </mxCell>
        <mxCell id="x5mroZ5SM7eKElS9qaG--14" value="" style="endArrow=classic;html=1;rounded=0;" edge="1" parent="x5mroZ5SM7eKElS9qaG--4" source="x5mroZ5SM7eKElS9qaG--9" target="x5mroZ5SM7eKElS9qaG--11">
          <mxGeometry width="50" height="50" relative="1" as="geometry">
            <mxPoint x="294.99999999999955" y="340" as="sourcePoint" />
            <mxPoint x="344.99999999999955" y="290" as="targetPoint" />
          </mxGeometry>
        </mxCell>
        <mxCell id="x5mroZ5SM7eKElS9qaG--8" value="" style="endArrow=classic;html=1;rounded=0;" edge="1" parent="x5mroZ5SM7eKElS9qaG--1" source="x5mroZ5SM7eKElS9qaG--6" target="x5mroZ5SM7eKElS9qaG--7">
          <mxGeometry width="50" height="50" relative="1" as="geometry">
            <mxPoint x="534.9999999999995" y="320" as="sourcePoint" />
            <mxPoint x="584.9999999999995" y="270" as="targetPoint" />
          </mxGeometry>
        </mxCell>
        <mxCell id="x5mroZ5SM7eKElS9qaG--12" value="" style="endArrow=classic;html=1;rounded=0;" edge="1" parent="x5mroZ5SM7eKElS9qaG--1" source="x5mroZ5SM7eKElS9qaG--7" target="x5mroZ5SM7eKElS9qaG--10">
          <mxGeometry width="50" height="50" relative="1" as="geometry">
            <mxPoint x="534.9999999999995" y="320" as="sourcePoint" />
            <mxPoint x="584.9999999999995" y="270" as="targetPoint" />
          </mxGeometry>
        </mxCell>
        <mxCell id="x5mroZ5SM7eKElS9qaG--15" value="" style="endArrow=classic;html=1;rounded=0;" edge="1" parent="x5mroZ5SM7eKElS9qaG--1" source="x5mroZ5SM7eKElS9qaG--11" target="x5mroZ5SM7eKElS9qaG--6">
          <mxGeometry width="50" height="50" relative="1" as="geometry">
            <mxPoint x="784.9999999999995" y="390" as="sourcePoint" />
            <mxPoint x="34.999999999999545" y="80" as="targetPoint" />
            <Array as="points">
              <mxPoint x="34.999999999999545" y="380" />
              <mxPoint x="34.999999999999545" y="150" />
            </Array>
          </mxGeometry>
        </mxCell>
        <mxCell id="x5mroZ5SM7eKElS9qaG--16" value="NO" style="edgeLabel;html=1;align=center;verticalAlign=middle;resizable=0;points=[];" vertex="1" connectable="0" parent="x5mroZ5SM7eKElS9qaG--15">
          <mxGeometry x="-0.9556" relative="1" as="geometry">
            <mxPoint as="offset" />
          </mxGeometry>
        </mxCell>
        <mxCell id="x5mroZ5SM7eKElS9qaG--19" value="" style="endArrow=classic;html=1;rounded=0;" edge="1" parent="x5mroZ5SM7eKElS9qaG--1" source="x5mroZ5SM7eKElS9qaG--11" target="x5mroZ5SM7eKElS9qaG--18">
          <mxGeometry width="50" height="50" relative="1" as="geometry">
            <mxPoint x="544.9999999999995" y="570" as="sourcePoint" />
            <mxPoint x="574.9999999999995" y="540" as="targetPoint" />
            <Array as="points">
              <mxPoint x="569.9999999999995" y="440" />
            </Array>
          </mxGeometry>
        </mxCell>
        <mxCell id="x5mroZ5SM7eKElS9qaG--20" value="YES" style="edgeLabel;html=1;align=center;verticalAlign=middle;resizable=0;points=[];" vertex="1" connectable="0" parent="x5mroZ5SM7eKElS9qaG--19">
          <mxGeometry x="-0.4595" y="1" relative="1" as="geometry">
            <mxPoint as="offset" />
          </mxGeometry>
        </mxCell>
        <mxCell id="x5mroZ5SM7eKElS9qaG--23" value="" style="endArrow=classic;html=1;rounded=0;" edge="1" parent="x5mroZ5SM7eKElS9qaG--1" source="x5mroZ5SM7eKElS9qaG--18" target="x5mroZ5SM7eKElS9qaG--22">
          <mxGeometry width="50" height="50" relative="1" as="geometry">
            <mxPoint x="354.99999999999955" y="460" as="sourcePoint" />
            <mxPoint x="404.99999999999955" y="410" as="targetPoint" />
          </mxGeometry>
        </mxCell>
      </root>
    </mxGraphModel>
  </diagram>
  <diagram id="vFpUmFFDXSz5Jmkh7PIF" name="Component Diagram">
    <mxGraphModel dx="3669" dy="993" grid="1" gridSize="10" guides="1" tooltips="1" connect="1" arrows="1" fold="1" page="1" pageScale="1" pageWidth="850" pageHeight="1100" math="0" shadow="0">
      <root>
        <mxCell id="0" />
        <mxCell id="1" parent="0" />
        <mxCell id="aYjFw9aAi69d3Fka3gua-93" value="&lt;p style=&quot;margin:0px;margin-top:6px;text-align:center;&quot;&gt;&lt;b&gt;&amp;lt;&amp;lt;Component&amp;gt;&amp;gt;&lt;/b&gt;&lt;/p&gt;&lt;p style=&quot;margin:0px;margin-top:6px;text-align:center;&quot;&gt;&lt;b&gt;User&lt;/b&gt;&lt;/p&gt;" style="align=left;overflow=fill;html=1;dropTarget=0;whiteSpace=wrap;" vertex="1" parent="1">
          <mxGeometry x="-1230" y="100" width="180" height="50" as="geometry" />
        </mxCell>
        <mxCell id="aYjFw9aAi69d3Fka3gua-94" value="" style="shape=component;jettyWidth=8;jettyHeight=4;" vertex="1" parent="aYjFw9aAi69d3Fka3gua-93">
          <mxGeometry x="1" width="20" height="20" relative="1" as="geometry">
            <mxPoint x="-24" y="4" as="offset" />
          </mxGeometry>
        </mxCell>
        <mxCell id="aYjFw9aAi69d3Fka3gua-95" value="&lt;p style=&quot;margin:0px;margin-top:6px;text-align:center;&quot;&gt;&lt;b&gt;&amp;lt;&amp;lt;Component&amp;gt;&amp;gt;&lt;/b&gt;&lt;/p&gt;&lt;p style=&quot;margin:0px;margin-top:6px;text-align:center;&quot;&gt;&lt;b&gt;Manager&lt;/b&gt;&lt;/p&gt;" style="align=left;overflow=fill;html=1;dropTarget=0;whiteSpace=wrap;" vertex="1" parent="1">
          <mxGeometry x="-1630" y="220" width="180" height="50" as="geometry" />
        </mxCell>
        <mxCell id="aYjFw9aAi69d3Fka3gua-96" value="" style="shape=component;jettyWidth=8;jettyHeight=4;" vertex="1" parent="aYjFw9aAi69d3Fka3gua-95">
          <mxGeometry x="1" width="20" height="20" relative="1" as="geometry">
            <mxPoint x="-24" y="4" as="offset" />
          </mxGeometry>
        </mxCell>
        <mxCell id="aYjFw9aAi69d3Fka3gua-97" value="&lt;p style=&quot;margin:0px;margin-top:6px;text-align:center;&quot;&gt;&lt;b&gt;&amp;lt;&amp;lt;Component&amp;gt;&amp;gt;&lt;/b&gt;&lt;/p&gt;&lt;p style=&quot;margin:0px;margin-top:6px;text-align:center;&quot;&gt;&lt;b&gt;Tech/Engineer&lt;/b&gt;&lt;/p&gt;" style="align=left;overflow=fill;html=1;dropTarget=0;whiteSpace=wrap;" vertex="1" parent="1">
          <mxGeometry x="-1430" y="220" width="180" height="50" as="geometry" />
        </mxCell>
        <mxCell id="aYjFw9aAi69d3Fka3gua-98" value="" style="shape=component;jettyWidth=8;jettyHeight=4;" vertex="1" parent="aYjFw9aAi69d3Fka3gua-97">
          <mxGeometry x="1" width="20" height="20" relative="1" as="geometry">
            <mxPoint x="-24" y="4" as="offset" />
          </mxGeometry>
        </mxCell>
        <mxCell id="aYjFw9aAi69d3Fka3gua-99" value="&lt;p style=&quot;margin:0px;margin-top:6px;text-align:center;&quot;&gt;&lt;b&gt;&amp;lt;&amp;lt;Component&amp;gt;&amp;gt;&lt;/b&gt;&lt;/p&gt;&lt;p style=&quot;margin:0px;margin-top:6px;text-align:center;&quot;&gt;&lt;b&gt;S&amp;amp;R&lt;/b&gt;&lt;/p&gt;" style="align=left;overflow=fill;html=1;dropTarget=0;whiteSpace=wrap;" vertex="1" parent="1">
          <mxGeometry x="-1230" y="220" width="180" height="50" as="geometry" />
        </mxCell>
        <mxCell id="aYjFw9aAi69d3Fka3gua-100" value="" style="shape=component;jettyWidth=8;jettyHeight=4;" vertex="1" parent="aYjFw9aAi69d3Fka3gua-99">
          <mxGeometry x="1" width="20" height="20" relative="1" as="geometry">
            <mxPoint x="-24" y="4" as="offset" />
          </mxGeometry>
        </mxCell>
        <mxCell id="aYjFw9aAi69d3Fka3gua-101" value="&lt;p style=&quot;margin:0px;margin-top:6px;text-align:center;&quot;&gt;&lt;b&gt;&amp;lt;&amp;lt;Component&amp;gt;&amp;gt;&lt;/b&gt;&lt;/p&gt;&lt;p style=&quot;margin:0px;margin-top:6px;text-align:center;&quot;&gt;&lt;b&gt;Procurement&lt;/b&gt;&lt;/p&gt;" style="align=left;overflow=fill;html=1;dropTarget=0;whiteSpace=wrap;" vertex="1" parent="1">
          <mxGeometry x="-1030" y="220" width="180" height="50" as="geometry" />
        </mxCell>
        <mxCell id="aYjFw9aAi69d3Fka3gua-102" value="" style="shape=component;jettyWidth=8;jettyHeight=4;" vertex="1" parent="aYjFw9aAi69d3Fka3gua-101">
          <mxGeometry x="1" width="20" height="20" relative="1" as="geometry">
            <mxPoint x="-24" y="4" as="offset" />
          </mxGeometry>
        </mxCell>
        <mxCell id="aYjFw9aAi69d3Fka3gua-103" value="&lt;p style=&quot;margin:0px;margin-top:6px;text-align:center;&quot;&gt;&lt;b&gt;&amp;lt;&amp;lt;Component&amp;gt;&amp;gt;&lt;/b&gt;&lt;/p&gt;&lt;p style=&quot;margin:0px;margin-top:6px;text-align:center;&quot;&gt;&lt;b&gt;System Admin&lt;/b&gt;&lt;/p&gt;" style="align=left;overflow=fill;html=1;dropTarget=0;whiteSpace=wrap;" vertex="1" parent="1">
          <mxGeometry x="-830" y="220" width="180" height="50" as="geometry" />
        </mxCell>
        <mxCell id="aYjFw9aAi69d3Fka3gua-104" value="" style="shape=component;jettyWidth=8;jettyHeight=4;" vertex="1" parent="aYjFw9aAi69d3Fka3gua-103">
          <mxGeometry x="1" width="20" height="20" relative="1" as="geometry">
            <mxPoint x="-24" y="4" as="offset" />
          </mxGeometry>
        </mxCell>
        <mxCell id="aYjFw9aAi69d3Fka3gua-105" value="" style="endArrow=none;html=1;rounded=0;" edge="1" parent="1" source="aYjFw9aAi69d3Fka3gua-95">
          <mxGeometry width="50" height="50" relative="1" as="geometry">
            <mxPoint x="-1510" y="220" as="sourcePoint" />
            <mxPoint x="-1540" y="200" as="targetPoint" />
          </mxGeometry>
        </mxCell>
        <mxCell id="aYjFw9aAi69d3Fka3gua-106" value="" style="endArrow=none;html=1;rounded=0;" edge="1" parent="1" source="aYjFw9aAi69d3Fka3gua-97">
          <mxGeometry width="50" height="50" relative="1" as="geometry">
            <mxPoint x="-1320" y="220" as="sourcePoint" />
            <mxPoint x="-1340" y="200" as="targetPoint" />
          </mxGeometry>
        </mxCell>
        <mxCell id="aYjFw9aAi69d3Fka3gua-107" value="" style="endArrow=none;html=1;rounded=0;" edge="1" parent="1" source="aYjFw9aAi69d3Fka3gua-99">
          <mxGeometry width="50" height="50" relative="1" as="geometry">
            <mxPoint x="-1130" y="220" as="sourcePoint" />
            <mxPoint x="-1140" y="200" as="targetPoint" />
          </mxGeometry>
        </mxCell>
        <mxCell id="aYjFw9aAi69d3Fka3gua-108" value="" style="endArrow=none;html=1;rounded=0;" edge="1" parent="1" source="aYjFw9aAi69d3Fka3gua-101">
          <mxGeometry width="50" height="50" relative="1" as="geometry">
            <mxPoint x="-940" y="220" as="sourcePoint" />
            <mxPoint x="-940" y="200" as="targetPoint" />
          </mxGeometry>
        </mxCell>
        <mxCell id="aYjFw9aAi69d3Fka3gua-109" value="" style="endArrow=none;html=1;rounded=0;" edge="1" parent="1" source="aYjFw9aAi69d3Fka3gua-103">
          <mxGeometry width="50" height="50" relative="1" as="geometry">
            <mxPoint x="-750" y="220" as="sourcePoint" />
            <mxPoint x="-740" y="200" as="targetPoint" />
          </mxGeometry>
        </mxCell>
        <mxCell id="aYjFw9aAi69d3Fka3gua-110" value="" style="endArrow=none;html=1;rounded=0;" edge="1" parent="1">
          <mxGeometry width="50" height="50" relative="1" as="geometry">
            <mxPoint x="-1540" y="200" as="sourcePoint" />
            <mxPoint x="-740" y="200" as="targetPoint" />
          </mxGeometry>
        </mxCell>
        <mxCell id="aYjFw9aAi69d3Fka3gua-111" value="Extends" style="endArrow=block;endSize=16;endFill=0;html=1;rounded=0;" edge="1" parent="1" target="aYjFw9aAi69d3Fka3gua-93">
          <mxGeometry width="160" relative="1" as="geometry">
            <mxPoint x="-1140" y="200" as="sourcePoint" />
            <mxPoint x="-950" y="250" as="targetPoint" />
          </mxGeometry>
        </mxCell>
        <mxCell id="aYjFw9aAi69d3Fka3gua-112" value="&lt;p style=&quot;margin:0px;margin-top:6px;text-align:center;&quot;&gt;&lt;b&gt;&amp;lt;&amp;lt;Component&amp;gt;&amp;gt;&lt;/b&gt;&lt;/p&gt;&lt;p style=&quot;margin:0px;margin-top:6px;text-align:center;&quot;&gt;&lt;b&gt;Scheduler&lt;/b&gt;&lt;/p&gt;" style="align=left;overflow=fill;html=1;dropTarget=0;whiteSpace=wrap;" vertex="1" parent="1">
          <mxGeometry x="-1530" y="340" width="180" height="140" as="geometry" />
        </mxCell>
        <mxCell id="aYjFw9aAi69d3Fka3gua-113" value="" style="shape=component;jettyWidth=8;jettyHeight=4;" vertex="1" parent="aYjFw9aAi69d3Fka3gua-112">
          <mxGeometry x="1" width="20" height="20" relative="1" as="geometry">
            <mxPoint x="-24" y="4" as="offset" />
          </mxGeometry>
        </mxCell>
        <mxCell id="aYjFw9aAi69d3Fka3gua-114" value="&lt;p style=&quot;margin:0px;margin-top:6px;text-align:center;&quot;&gt;&lt;b&gt;&amp;lt;&amp;lt;Component&amp;gt;&amp;gt;&lt;/b&gt;&lt;/p&gt;&lt;p style=&quot;margin:0px;margin-top:6px;text-align:center;&quot;&gt;&lt;b&gt;Request&lt;/b&gt;&lt;/p&gt;" style="align=left;overflow=fill;html=1;dropTarget=0;whiteSpace=wrap;" vertex="1" parent="1">
          <mxGeometry x="-1510" y="400" width="140" height="50" as="geometry" />
        </mxCell>
        <mxCell id="aYjFw9aAi69d3Fka3gua-115" value="" style="shape=component;jettyWidth=8;jettyHeight=4;" vertex="1" parent="aYjFw9aAi69d3Fka3gua-114">
          <mxGeometry x="1" width="20" height="20" relative="1" as="geometry">
            <mxPoint x="-24" y="4" as="offset" />
          </mxGeometry>
        </mxCell>
        <mxCell id="aYjFw9aAi69d3Fka3gua-116" value="&lt;p style=&quot;margin:0px;margin-top:6px;text-align:center;&quot;&gt;&lt;b&gt;&amp;lt;&amp;lt;Component&amp;gt;&amp;gt;&lt;/b&gt;&lt;/p&gt;&lt;p style=&quot;margin:0px;margin-top:6px;text-align:center;&quot;&gt;&lt;b&gt;Schedule&lt;/b&gt;&lt;/p&gt;" style="align=left;overflow=fill;html=1;dropTarget=0;whiteSpace=wrap;" vertex="1" parent="1">
          <mxGeometry x="-1300" y="365" width="180" height="50" as="geometry" />
        </mxCell>
        <mxCell id="aYjFw9aAi69d3Fka3gua-117" value="" style="shape=component;jettyWidth=8;jettyHeight=4;" vertex="1" parent="aYjFw9aAi69d3Fka3gua-116">
          <mxGeometry x="1" width="20" height="20" relative="1" as="geometry">
            <mxPoint x="-24" y="4" as="offset" />
          </mxGeometry>
        </mxCell>
        <mxCell id="aYjFw9aAi69d3Fka3gua-118" value="&lt;p style=&quot;margin:0px;margin-top:6px;text-align:center;&quot;&gt;&lt;b&gt;&amp;lt;&amp;lt;External Database&amp;gt;&amp;gt;&lt;/b&gt;&lt;/p&gt;&lt;p style=&quot;margin:0px;margin-top:6px;text-align:center;&quot;&gt;&lt;b&gt;Equipment Database&lt;/b&gt;&lt;/p&gt;" style="align=left;overflow=fill;html=1;dropTarget=0;whiteSpace=wrap;" vertex="1" parent="1">
          <mxGeometry x="-1070" y="365" width="180" height="50" as="geometry" />
        </mxCell>
        <mxCell id="aYjFw9aAi69d3Fka3gua-119" value="" style="shape=component;jettyWidth=8;jettyHeight=4;" vertex="1" parent="aYjFw9aAi69d3Fka3gua-118">
          <mxGeometry x="1" width="20" height="20" relative="1" as="geometry">
            <mxPoint x="-24" y="4" as="offset" />
          </mxGeometry>
        </mxCell>
        <mxCell id="aYjFw9aAi69d3Fka3gua-120" value="&lt;p style=&quot;margin:0px;margin-top:6px;text-align:center;&quot;&gt;&lt;b&gt;&amp;lt;&amp;lt;Component&amp;gt;&amp;gt;&lt;/b&gt;&lt;/p&gt;&lt;p style=&quot;margin:0px;margin-top:6px;text-align:center;&quot;&gt;&lt;b&gt;Equipment&lt;/b&gt;&lt;/p&gt;" style="align=left;overflow=fill;html=1;dropTarget=0;whiteSpace=wrap;" vertex="1" parent="1">
          <mxGeometry x="-830" y="355" width="180" height="140" as="geometry" />
        </mxCell>
        <mxCell id="aYjFw9aAi69d3Fka3gua-121" value="" style="shape=component;jettyWidth=8;jettyHeight=4;" vertex="1" parent="aYjFw9aAi69d3Fka3gua-120">
          <mxGeometry x="1" width="20" height="20" relative="1" as="geometry">
            <mxPoint x="-24" y="4" as="offset" />
          </mxGeometry>
        </mxCell>
        <mxCell id="aYjFw9aAi69d3Fka3gua-122" value="&lt;p style=&quot;margin:0px;margin-top:6px;text-align:center;&quot;&gt;&lt;b&gt;&amp;lt;&amp;lt;Component&amp;gt;&amp;gt;&lt;/b&gt;&lt;/p&gt;&lt;p style=&quot;margin:0px;margin-top:6px;text-align:center;&quot;&gt;&lt;b&gt;Equipment History&lt;/b&gt;&lt;/p&gt;" style="align=left;overflow=fill;html=1;dropTarget=0;whiteSpace=wrap;" vertex="1" parent="1">
          <mxGeometry x="-810" y="415" width="140" height="50" as="geometry" />
        </mxCell>
        <mxCell id="aYjFw9aAi69d3Fka3gua-123" value="" style="shape=component;jettyWidth=8;jettyHeight=4;" vertex="1" parent="aYjFw9aAi69d3Fka3gua-122">
          <mxGeometry x="1" width="20" height="20" relative="1" as="geometry">
            <mxPoint x="-24" y="4" as="offset" />
          </mxGeometry>
        </mxCell>
        <mxCell id="aYjFw9aAi69d3Fka3gua-127" value="" style="rounded=0;orthogonalLoop=1;jettySize=auto;html=1;endArrow=halfCircle;endFill=0;endSize=6;strokeWidth=1;sketch=0;" edge="1" parent="1" source="aYjFw9aAi69d3Fka3gua-95">
          <mxGeometry relative="1" as="geometry">
            <mxPoint x="-1470" y="300" as="sourcePoint" />
            <mxPoint x="-1540" y="300" as="targetPoint" />
          </mxGeometry>
        </mxCell>
        <mxCell id="aYjFw9aAi69d3Fka3gua-128" value="" style="rounded=0;orthogonalLoop=1;jettySize=auto;html=1;endArrow=oval;endFill=0;sketch=0;sourcePerimeterSpacing=0;targetPerimeterSpacing=0;endSize=10;" edge="1" parent="1" source="aYjFw9aAi69d3Fka3gua-114">
          <mxGeometry relative="1" as="geometry">
            <mxPoint x="-620" y="435" as="sourcePoint" />
            <mxPoint x="-1540" y="300" as="targetPoint" />
          </mxGeometry>
        </mxCell>
        <mxCell id="aYjFw9aAi69d3Fka3gua-129" value="" style="ellipse;whiteSpace=wrap;html=1;align=center;aspect=fixed;fillColor=none;strokeColor=none;resizable=0;perimeter=centerPerimeter;rotatable=0;allowArrows=0;points=[];outlineConnect=1;" vertex="1" parent="1">
          <mxGeometry x="-605" y="430" width="10" height="10" as="geometry" />
        </mxCell>
        <mxCell id="aYjFw9aAi69d3Fka3gua-130" value="" style="rounded=0;orthogonalLoop=1;jettySize=auto;html=1;endArrow=oval;endFill=0;sketch=0;sourcePerimeterSpacing=0;targetPerimeterSpacing=0;endSize=10;" edge="1" parent="1" source="aYjFw9aAi69d3Fka3gua-114">
          <mxGeometry relative="1" as="geometry">
            <mxPoint x="-1530" y="280" as="sourcePoint" />
            <mxPoint x="-1340" y="300" as="targetPoint" />
          </mxGeometry>
        </mxCell>
        <mxCell id="aYjFw9aAi69d3Fka3gua-134" value="" style="rounded=0;orthogonalLoop=1;jettySize=auto;html=1;endArrow=halfCircle;endFill=0;endSize=6;strokeWidth=1;sketch=0;" edge="1" parent="1" source="aYjFw9aAi69d3Fka3gua-97">
          <mxGeometry relative="1" as="geometry">
            <mxPoint x="-1260" y="320" as="sourcePoint" />
            <mxPoint x="-1340" y="300" as="targetPoint" />
          </mxGeometry>
        </mxCell>
        <mxCell id="aYjFw9aAi69d3Fka3gua-138" value="" style="rounded=0;orthogonalLoop=1;jettySize=auto;html=1;endArrow=halfCircle;endFill=0;endSize=6;strokeWidth=1;sketch=0;" edge="1" parent="1" source="aYjFw9aAi69d3Fka3gua-112">
          <mxGeometry relative="1" as="geometry">
            <mxPoint x="-460" y="125" as="sourcePoint" />
            <mxPoint x="-1330" y="410" as="targetPoint" />
          </mxGeometry>
        </mxCell>
        <mxCell id="aYjFw9aAi69d3Fka3gua-139" value="" style="rounded=0;orthogonalLoop=1;jettySize=auto;html=1;endArrow=oval;endFill=0;sketch=0;sourcePerimeterSpacing=0;targetPerimeterSpacing=0;endSize=10;" edge="1" parent="1" source="aYjFw9aAi69d3Fka3gua-116">
          <mxGeometry relative="1" as="geometry">
            <mxPoint x="-1270" y="500" as="sourcePoint" />
            <mxPoint x="-1330" y="410" as="targetPoint" />
          </mxGeometry>
        </mxCell>
        <mxCell id="aYjFw9aAi69d3Fka3gua-141" value="" style="rounded=0;orthogonalLoop=1;jettySize=auto;html=1;endArrow=halfCircle;endFill=0;endSize=6;strokeWidth=1;sketch=0;" edge="1" parent="1" source="aYjFw9aAi69d3Fka3gua-116">
          <mxGeometry relative="1" as="geometry">
            <mxPoint x="-580" y="135" as="sourcePoint" />
            <mxPoint x="-1090" y="390" as="targetPoint" />
          </mxGeometry>
        </mxCell>
        <mxCell id="aYjFw9aAi69d3Fka3gua-142" value="" style="rounded=0;orthogonalLoop=1;jettySize=auto;html=1;endArrow=oval;endFill=0;sketch=0;sourcePerimeterSpacing=0;targetPerimeterSpacing=0;endSize=10;" edge="1" parent="1" source="aYjFw9aAi69d3Fka3gua-118">
          <mxGeometry relative="1" as="geometry">
            <mxPoint x="-730" y="140" as="sourcePoint" />
            <mxPoint x="-1090" y="390" as="targetPoint" />
          </mxGeometry>
        </mxCell>
        <mxCell id="aYjFw9aAi69d3Fka3gua-143" value="" style="ellipse;whiteSpace=wrap;html=1;align=center;aspect=fixed;fillColor=none;strokeColor=none;resizable=0;perimeter=centerPerimeter;rotatable=0;allowArrows=0;points=[];outlineConnect=1;" vertex="1" parent="1">
          <mxGeometry x="-605" y="130" width="10" height="10" as="geometry" />
        </mxCell>
        <mxCell id="aYjFw9aAi69d3Fka3gua-144" value="" style="rounded=0;orthogonalLoop=1;jettySize=auto;html=1;endArrow=halfCircle;endFill=0;endSize=6;strokeWidth=1;sketch=0;" edge="1" parent="1" source="aYjFw9aAi69d3Fka3gua-118">
          <mxGeometry relative="1" as="geometry">
            <mxPoint x="-560" y="285" as="sourcePoint" />
            <mxPoint x="-850" y="420" as="targetPoint" />
          </mxGeometry>
        </mxCell>
        <mxCell id="aYjFw9aAi69d3Fka3gua-145" value="" style="rounded=0;orthogonalLoop=1;jettySize=auto;html=1;endArrow=oval;endFill=0;sketch=0;sourcePerimeterSpacing=0;targetPerimeterSpacing=0;endSize=10;" edge="1" parent="1" source="aYjFw9aAi69d3Fka3gua-120">
          <mxGeometry relative="1" as="geometry">
            <mxPoint x="-600" y="285" as="sourcePoint" />
            <mxPoint x="-850" y="420" as="targetPoint" />
          </mxGeometry>
        </mxCell>
        <mxCell id="aYjFw9aAi69d3Fka3gua-146" value="" style="ellipse;whiteSpace=wrap;html=1;align=center;aspect=fixed;fillColor=none;strokeColor=none;resizable=0;perimeter=centerPerimeter;rotatable=0;allowArrows=0;points=[];outlineConnect=1;" vertex="1" parent="1">
          <mxGeometry x="-585" y="280" width="10" height="10" as="geometry" />
        </mxCell>
        <mxCell id="aYjFw9aAi69d3Fka3gua-147" value="" style="rounded=0;orthogonalLoop=1;jettySize=auto;html=1;endArrow=halfCircle;endFill=0;endSize=6;strokeWidth=1;sketch=0;" edge="1" parent="1" source="aYjFw9aAi69d3Fka3gua-103">
          <mxGeometry relative="1" as="geometry">
            <mxPoint x="-590" y="265" as="sourcePoint" />
            <mxPoint x="-740" y="330" as="targetPoint" />
          </mxGeometry>
        </mxCell>
        <mxCell id="aYjFw9aAi69d3Fka3gua-148" value="" style="rounded=0;orthogonalLoop=1;jettySize=auto;html=1;endArrow=oval;endFill=0;sketch=0;sourcePerimeterSpacing=0;targetPerimeterSpacing=0;endSize=10;" edge="1" parent="1" source="aYjFw9aAi69d3Fka3gua-120">
          <mxGeometry relative="1" as="geometry">
            <mxPoint x="-630" y="265" as="sourcePoint" />
            <mxPoint x="-740" y="330" as="targetPoint" />
          </mxGeometry>
        </mxCell>
        <mxCell id="aYjFw9aAi69d3Fka3gua-149" value="" style="ellipse;whiteSpace=wrap;html=1;align=center;aspect=fixed;fillColor=none;strokeColor=none;resizable=0;perimeter=centerPerimeter;rotatable=0;allowArrows=0;points=[];outlineConnect=1;" vertex="1" parent="1">
          <mxGeometry x="-615" y="260" width="10" height="10" as="geometry" />
        </mxCell>
        <mxCell id="aYjFw9aAi69d3Fka3gua-150" value="" style="rounded=0;orthogonalLoop=1;jettySize=auto;html=1;endArrow=halfCircle;endFill=0;endSize=6;strokeWidth=1;sketch=0;" edge="1" parent="1" source="aYjFw9aAi69d3Fka3gua-101">
          <mxGeometry relative="1" as="geometry">
            <mxPoint x="-590" y="265" as="sourcePoint" />
            <mxPoint x="-830" y="340" as="targetPoint" />
          </mxGeometry>
        </mxCell>
        <mxCell id="aYjFw9aAi69d3Fka3gua-151" value="" style="rounded=0;orthogonalLoop=1;jettySize=auto;html=1;endArrow=oval;endFill=0;sketch=0;sourcePerimeterSpacing=0;targetPerimeterSpacing=0;endSize=10;" edge="1" parent="1" source="aYjFw9aAi69d3Fka3gua-120">
          <mxGeometry relative="1" as="geometry">
            <mxPoint x="-630" y="265" as="sourcePoint" />
            <mxPoint x="-830" y="340" as="targetPoint" />
          </mxGeometry>
        </mxCell>
        <mxCell id="aYjFw9aAi69d3Fka3gua-152" value="" style="ellipse;whiteSpace=wrap;html=1;align=center;aspect=fixed;fillColor=none;strokeColor=none;resizable=0;perimeter=centerPerimeter;rotatable=0;allowArrows=0;points=[];outlineConnect=1;" vertex="1" parent="1">
          <mxGeometry x="-615" y="260" width="10" height="10" as="geometry" />
        </mxCell>
        <mxCell id="aYjFw9aAi69d3Fka3gua-153" value="" style="rounded=0;orthogonalLoop=1;jettySize=auto;html=1;endArrow=halfCircle;endFill=0;endSize=6;strokeWidth=1;sketch=0;" edge="1" parent="1" source="aYjFw9aAi69d3Fka3gua-99">
          <mxGeometry relative="1" as="geometry">
            <mxPoint x="-590" y="265" as="sourcePoint" />
            <mxPoint x="-860" y="360" as="targetPoint" />
          </mxGeometry>
        </mxCell>
        <mxCell id="aYjFw9aAi69d3Fka3gua-154" value="" style="rounded=0;orthogonalLoop=1;jettySize=auto;html=1;endArrow=oval;endFill=0;sketch=0;sourcePerimeterSpacing=0;targetPerimeterSpacing=0;endSize=10;" edge="1" parent="1" source="aYjFw9aAi69d3Fka3gua-120">
          <mxGeometry relative="1" as="geometry">
            <mxPoint x="-630" y="265" as="sourcePoint" />
            <mxPoint x="-860" y="360" as="targetPoint" />
          </mxGeometry>
        </mxCell>
        <mxCell id="aYjFw9aAi69d3Fka3gua-155" value="" style="ellipse;whiteSpace=wrap;html=1;align=center;aspect=fixed;fillColor=none;strokeColor=none;resizable=0;perimeter=centerPerimeter;rotatable=0;allowArrows=0;points=[];outlineConnect=1;" vertex="1" parent="1">
          <mxGeometry x="-615" y="260" width="10" height="10" as="geometry" />
        </mxCell>
        <mxCell id="aYjFw9aAi69d3Fka3gua-156" value="updates" style="text;html=1;align=center;verticalAlign=middle;resizable=0;points=[];autosize=1;strokeColor=none;fillColor=none;" vertex="1" parent="1">
          <mxGeometry x="-1355" y="408" width="70" height="30" as="geometry" />
        </mxCell>
        <mxCell id="aYjFw9aAi69d3Fka3gua-157" value="updates" style="text;html=1;align=center;verticalAlign=middle;resizable=0;points=[];autosize=1;strokeColor=none;fillColor=none;" vertex="1" parent="1">
          <mxGeometry x="-1135" y="388" width="70" height="30" as="geometry" />
        </mxCell>
        <mxCell id="aYjFw9aAi69d3Fka3gua-158" value="updates" style="text;html=1;align=center;verticalAlign=middle;resizable=0;points=[];autosize=1;strokeColor=none;fillColor=none;" vertex="1" parent="1">
          <mxGeometry x="-895" y="418" width="70" height="30" as="geometry" />
        </mxCell>
        <mxCell id="aYjFw9aAi69d3Fka3gua-159" value="creates" style="text;html=1;align=center;verticalAlign=middle;resizable=0;points=[];autosize=1;strokeColor=none;fillColor=none;" vertex="1" parent="1">
          <mxGeometry x="-1350" y="288" width="60" height="30" as="geometry" />
        </mxCell>
        <mxCell id="aYjFw9aAi69d3Fka3gua-160" value="creates" style="text;html=1;align=center;verticalAlign=middle;resizable=0;points=[];autosize=1;strokeColor=none;fillColor=none;" vertex="1" parent="1">
          <mxGeometry x="-1600" y="288" width="60" height="30" as="geometry" />
        </mxCell>
        <mxCell id="aYjFw9aAi69d3Fka3gua-161" value="creates" style="text;html=1;align=center;verticalAlign=middle;resizable=0;points=[];autosize=1;strokeColor=none;fillColor=none;" vertex="1" parent="1">
          <mxGeometry x="-750" y="308" width="60" height="30" as="geometry" />
        </mxCell>
        <mxCell id="aYjFw9aAi69d3Fka3gua-162" value="creates" style="text;html=1;align=center;verticalAlign=middle;resizable=0;points=[];autosize=1;strokeColor=none;fillColor=none;" vertex="1" parent="1">
          <mxGeometry x="-860" y="298" width="60" height="30" as="geometry" />
        </mxCell>
        <mxCell id="aYjFw9aAi69d3Fka3gua-164" value="creates" style="text;html=1;align=center;verticalAlign=middle;resizable=0;points=[];autosize=1;strokeColor=none;fillColor=none;" vertex="1" parent="1">
          <mxGeometry x="-990" y="318" width="60" height="30" as="geometry" />
        </mxCell>
      </root>
    </mxGraphModel>
  </diagram>
  <diagram id="6PmnqnfKtcZzjZeI5c7d" name="Deployment Diagram">
    <mxGraphModel dx="1674" dy="844" grid="1" gridSize="10" guides="1" tooltips="1" connect="1" arrows="1" fold="1" page="1" pageScale="1" pageWidth="850" pageHeight="1100" math="0" shadow="0">
      <root>
        <mxCell id="0" />
        <mxCell id="1" parent="0" />
        <mxCell id="u4bKkkKCfSzr_xBHwqqt-2" value="User Application" style="verticalAlign=top;align=left;spacingTop=8;spacingLeft=2;spacingRight=12;shape=cube;size=10;direction=south;fontStyle=4;html=1;whiteSpace=wrap;" vertex="1" parent="1">
          <mxGeometry x="40" y="270" width="140" height="220" as="geometry" />
        </mxCell>
        <mxCell id="u4bKkkKCfSzr_xBHwqqt-3" value="Equipment Database" style="verticalAlign=top;align=left;spacingTop=8;spacingLeft=2;spacingRight=12;shape=cube;size=10;direction=south;fontStyle=4;html=1;whiteSpace=wrap;" vertex="1" parent="1">
          <mxGeometry x="440" y="270" width="140" height="100" as="geometry" />
        </mxCell>
        <mxCell id="u4bKkkKCfSzr_xBHwqqt-4" value="Application Server" style="verticalAlign=top;align=left;spacingTop=8;spacingLeft=2;spacingRight=12;shape=cube;size=10;direction=south;fontStyle=4;html=1;whiteSpace=wrap;" vertex="1" parent="1">
          <mxGeometry x="240" y="270" width="140" height="220" as="geometry" />
        </mxCell>
        <mxCell id="u4bKkkKCfSzr_xBHwqqt-5" value="&amp;lt;&amp;lt;atrifact&amp;gt;&amp;gt;&lt;br&gt;html script" style="html=1;whiteSpace=wrap;" vertex="1" parent="1">
          <mxGeometry x="50" y="310" width="110" height="50" as="geometry" />
        </mxCell>
        <mxCell id="u4bKkkKCfSzr_xBHwqqt-6" value="&amp;lt;&amp;lt;atrifact&amp;gt;&amp;gt;&lt;br&gt;css script" style="html=1;whiteSpace=wrap;" vertex="1" parent="1">
          <mxGeometry x="50" y="370" width="110" height="50" as="geometry" />
        </mxCell>
        <mxCell id="u4bKkkKCfSzr_xBHwqqt-7" value="&amp;lt;&amp;lt;atrifact&amp;gt;&amp;gt;&lt;br&gt;js script" style="html=1;whiteSpace=wrap;" vertex="1" parent="1">
          <mxGeometry x="50" y="430" width="110" height="50" as="geometry" />
        </mxCell>
        <mxCell id="u4bKkkKCfSzr_xBHwqqt-8" value="&amp;lt;&amp;lt;atrifact&amp;gt;&amp;gt;&lt;br&gt;AWS Database" style="html=1;whiteSpace=wrap;" vertex="1" parent="1">
          <mxGeometry x="450" y="310" width="110" height="50" as="geometry" />
        </mxCell>
        <mxCell id="u4bKkkKCfSzr_xBHwqqt-9" value="&amp;lt;&amp;lt;atrifact&amp;gt;&amp;gt;&lt;br&gt;scheduler" style="html=1;whiteSpace=wrap;" vertex="1" parent="1">
          <mxGeometry x="250" y="310" width="110" height="50" as="geometry" />
        </mxCell>
        <mxCell id="u4bKkkKCfSzr_xBHwqqt-10" value="&amp;lt;&amp;lt;atrifact&amp;gt;&amp;gt;&lt;br&gt;equipment" style="html=1;whiteSpace=wrap;" vertex="1" parent="1">
          <mxGeometry x="250" y="370" width="110" height="50" as="geometry" />
        </mxCell>
        <mxCell id="9JdgjyWZkneyMa1iSFxd-1" value="&amp;lt;&amp;lt;atrifact&amp;gt;&amp;gt;&lt;br&gt;main" style="html=1;whiteSpace=wrap;" vertex="1" parent="1">
          <mxGeometry x="250" y="430" width="110" height="50" as="geometry" />
        </mxCell>
        <mxCell id="9JdgjyWZkneyMa1iSFxd-2" value="" style="endArrow=none;html=1;rounded=0;" edge="1" parent="1" source="u4bKkkKCfSzr_xBHwqqt-2" target="u4bKkkKCfSzr_xBHwqqt-4">
          <mxGeometry width="50" height="50" relative="1" as="geometry">
            <mxPoint x="440" y="380" as="sourcePoint" />
            <mxPoint x="490" y="330" as="targetPoint" />
          </mxGeometry>
        </mxCell>
        <mxCell id="9JdgjyWZkneyMa1iSFxd-3" value="" style="endArrow=none;html=1;rounded=0;" edge="1" parent="1" source="u4bKkkKCfSzr_xBHwqqt-4" target="u4bKkkKCfSzr_xBHwqqt-3">
          <mxGeometry width="50" height="50" relative="1" as="geometry">
            <mxPoint x="440" y="380" as="sourcePoint" />
            <mxPoint x="490" y="330" as="targetPoint" />
          </mxGeometry>
        </mxCell>
      </root>
    </mxGraphModel>
  </diagram>
  <diagram id="FcSeeT5SRv33-tAVG_Lr" name="Skeleton Classes and Tables Definition">
    <mxGraphModel dx="1674" dy="844" grid="1" gridSize="10" guides="1" tooltips="1" connect="1" arrows="1" fold="1" page="1" pageScale="1" pageWidth="850" pageHeight="1100" math="0" shadow="0">
      <root>
        <mxCell id="0" />
        <mxCell id="1" parent="0" />
      </root>
    </mxGraphModel>
  </diagram>
</mxfile>
